<?xml version="1.0" encoding="utf-8"?>
<!-- Generator: Adobe Illustrator 16.0.0, SVG Export Plug-In . SVG Version: 6.00 Build 0)  -->
<!DOCTYPE svg PUBLIC "-//W3C//DTD SVG 1.1//EN" "http://www.w3.org/Graphics/SVG/1.1/DTD/svg11.dtd">
<svg version="1.1" id="Layer_1" xmlns="http://www.w3.org/2000/svg" xmlns:xlink="http://www.w3.org/1999/xlink" x="0px" y="0px"
	 width="398.23px" height="142.713px" viewBox="0 0 398.23 142.713" enable-background="new 0 0 398.23 142.713"
	 xml:space="preserve">
<rect fill="#FFFFFF" stroke="#000000" stroke-miterlimit="10" width="398.23" height="142.713"/>
<g>
	<path fill="#0033A0" d="M276.372,8.448h-13.095l-24.796,77.759h11.601l5.389-18.209h28.151l5.194,18.209H300.8L276.372,8.448z
		 M258.222,58.607l10.143-34.011h2.648l9.815,34.011H258.222z"/>
	<path fill="#E2231A" d="M90.017,60.368H74.772l-28.865,82.364h13.505l6.272-19.287h32.772l6.048,19.287h13.951L90.017,60.368z
		 M68.889,113.498l11.807-36.025h3.083l11.426,36.025H68.889z"/>
	<path fill="#0033A0" d="M129.045,62.462c0,13.626-5.834,23.745-17.049,23.745c-11.272,0-17.108-10.119-17.108-23.745V26.964h8.925
		v35.008c0,7.1,3.433,12.487,8.183,12.487c4.691,0,8.125-5.388,8.125-12.487V26.964h8.924V62.462z"/>
	<path fill="#0033A0" d="M133.76,28.431h8.926v46.024h16.536v11.752H133.76V28.431z"/>
	<path fill="#0033A0" d="M162.865,39.69h-11.558v-11.26h32.04v11.26H171.79v46.517h-8.925V39.69z"/>
	<path fill="#0033A0" d="M185.459,28.431h8.927v57.776h-8.927V28.431z"/>
	<path fill="#0033A0" d="M198.648,28.431h13.5l9.328,37.701h0.115l9.381-37.701h13.447v57.776h-8.926V41.894h-0.115l-10.641,44.313
		h-6.809l-10.244-44.313h-0.114v44.313h-8.923V28.431z"/>
	<path fill="#0033A0" d="M298.371,39.69H286.81v-11.26h32.043v11.26h-11.557v46.517h-8.926V39.69z"/>
	<path fill="#0033A0" d="M321.951,28.431h27.52v11.75h-18.594v10.771h17.563v11.752h-17.563v11.751H350.5v11.752h-28.55V28.431z"/>
	<path fill="#E2231A" d="M199.866,114.449c-0.336-0.508-0.676-1.021-1.582-2.02c-0.449-0.498-1.777-1.898-3.488-2.986
		c-4.484-2.85-9.191-2.344-9.465-2.314c-2.811,0.309-6.676,1.865-5.309,8.387c0.24,1.145,1.051,5.428,4.637,9.965
		c1.629,2.059,3.309,3.402,4.273,4.082c2.42,1.707,7.195,4.021,12.527,3.855c4.873-0.154,5.719-2.064,5.961-3.482
		c0.225-1.318-0.055-2.438-0.27-3.195c-0.184-0.637-0.391-0.949-0.746-1.709c6.676-0.359,10.014-0.543,16.691-0.9
		c1.748,2.551,5.156,7.742,3.805,12.178c-1.613,5.289-9.252,6.924-17.5,7.004c-7.203,0.07-16.666-0.84-26.777-5.563
		c-3.119-1.457-5.391-3.162-6.455-3.986c-1.568-1.215-4.412-3.695-6.971-7.313c-1.846-2.604-4.99-8.063-5.281-14.152
		c-0.357-7.377,3.527-10.643,5.41-11.865c1.324-0.855,3.664-1.988,8.133-2.643c1.609-0.234,9.656-1.752,20.789,3.018
		c3.467,1.486,6.789,3.355,10.223,5.91c0.666,0.496,2.697,2.08,4.406,3.832c1.076,1.102,1.988,2.287,2.248,2.619
		C209.018,113.678,205.969,113.936,199.866,114.449z"/>
	<path fill="#E2231A" d="M238.69,92.082c4.219,4.836,5.24,6.045,9.275,10.82c-7.535,0.643-11.277,0.988-18.73,1.713
		c2.395,3.129,3.574,4.688,5.883,7.785c6.953-0.529,10.441-0.781,17.453-1.248c3.555,4.273,5.299,6.396,8.703,10.615
		c-7.504,0.314-11.242,0.492-18.697,0.867c2.346,3.275,3.492,4.906,5.736,8.146c7.592-0.24,15.205-0.459,22.871-0.631
		c3.574,4.543,5.761,7.674,9.159,12.154c-14.018,0.049-27.957,0.178-41.857,0.344c-9.174-15.418-18.768-32.357-30.121-48.322
		C218.412,92.949,228.502,93.326,238.69,92.082z"/>
	<path fill="#E2231A" d="M257.154,89.266c14.93,10.764,29.904,22.867,44.953,33.553c-10.74-11.088-21.881-23.547-33.166-34.627
		c4.918-0.412,9.311-0.598,14.305-0.924c19.168,18.455,37.611,36.916,55.023,55.381c-7.361-0.248-12.276,0.146-19.54,0
		c-14.449-10.234-29.388-19.615-43.69-29.947c9.551,10.221,18.768,19.775,27.668,29.947c-6.525-0.064-9.766-0.076-16.24-0.082
		c-13.305-16.971-27.459-34.66-42.666-51.881C249.107,90.082,251.777,89.795,257.154,89.266z"/>
	<path fill="#E2231A" d="M348.354,78.219l17.54,18.133l-28.5,1.109c21.707,16.063,41.805,31.279,60.836,45.252
		c-9.039,0.469-26.938,0.326-36.689-0.064c-14.801-14.477-27.111-27.422-42.926-41.848c-7.125,0.07-10.662,0.137-17.697,0.303
		c-5.945-5.688-10.215-9.801-16.426-15.57C301.064,84.752,331.62,80.939,348.354,78.219z"/>
	
		<image overflow="visible" width="213" height="123" xlink:href="EF31C2FE.png"  transform="matrix(0.24 0 0 0.24 165.6772 5.5342)">
	</image>
	
		<linearGradient id="SVGID_1_" gradientUnits="userSpaceOnUse" x1="158.0078" y1="157.3193" x2="193.3661" y2="176.8883" gradientTransform="matrix(0.9961 -0.0887 0.0887 0.9961 -0.59 -132.7612)">
		<stop  offset="0.1043" style="stop-color:#E2231A"/>
		<stop  offset="0.5153" style="stop-color:#FFC7B7"/>
		<stop  offset="0.9141" style="stop-color:#E2231A"/>
	</linearGradient>
	<path fill="url(#SVGID_1_)" d="M215.022,16.78c0.607,6.793-9.635,13.256-22.871,14.436c-13.238,1.178-24.457-3.375-25.063-10.17
		S176.723,7.788,189.96,6.61C203.198,5.431,214.418,9.983,215.022,16.78z"/>
	
		<linearGradient id="SVGID_2_" gradientUnits="userSpaceOnUse" x1="274.6284" y1="-5.27" x2="256.7781" y2="-21.769" gradientTransform="matrix(0.9879 0.1553 -0.1553 0.9879 -71.451 -6.7053)">
		<stop  offset="0.2577" style="stop-color:#E2231A"/>
		<stop  offset="0.5153" style="stop-color:#FFB9A7"/>
		<stop  offset="0.7791" style="stop-color:#E2231A"/>
	</linearGradient>
	<path fill="url(#SVGID_2_)" d="M189.79,7.255c-12.49,1.111-22.176,6.91-21.637,12.953c0.537,6.041,11.096,10.039,23.583,8.928
		c12.486-1.111,22.173-6.91,21.633-12.953C212.833,10.142,202.274,6.144,189.79,7.255z M191.759,28.999
		c-12.36,1.1-22.813-2.857-23.344-8.838c-0.532-5.982,9.056-11.723,21.416-12.824c12.361-1.1,22.814,2.857,23.346,8.84
		C213.71,22.157,204.121,27.899,191.759,28.999z"/>
	
		<linearGradient id="SVGID_3_" gradientUnits="userSpaceOnUse" x1="274.6636" y1="-5.3809" x2="256.8141" y2="-21.879" gradientTransform="matrix(0.9879 0.1553 -0.1553 0.9879 -71.451 -6.7053)">
		<stop  offset="0.2577" style="stop-color:#E2231A"/>
		<stop  offset="0.5153" style="stop-color:#FFB9A7"/>
		<stop  offset="0.7791" style="stop-color:#E2231A"/>
	</linearGradient>
	<path fill="url(#SVGID_3_)" d="M189.792,7.302c-12.215,1.088-21.691,6.762-21.165,12.672c0.526,5.912,10.855,9.82,23.071,8.734
		c12.213-1.088,21.689-6.762,21.164-12.672C212.334,10.126,202.005,6.214,189.792,7.302z M191.721,28.573
		c-12.092,1.076-22.316-2.793-22.838-8.646c-0.521-5.85,8.86-11.467,20.951-12.543c12.092-1.076,22.318,2.795,22.84,8.646
		C213.194,21.882,203.814,27.497,191.721,28.573z"/>
	
		<linearGradient id="SVGID_4_" gradientUnits="userSpaceOnUse" x1="274.6919" y1="-5.48" x2="256.8428" y2="-21.9778" gradientTransform="matrix(0.9879 0.1553 -0.1553 0.9879 -71.451 -6.7053)">
		<stop  offset="0.2577" style="stop-color:#E2231A"/>
		<stop  offset="0.5153" style="stop-color:#FFB9A7"/>
		<stop  offset="0.7791" style="stop-color:#E2231A"/>
	</linearGradient>
	<path fill="url(#SVGID_4_)" d="M189.797,7.372c-11.943,1.063-21.209,6.609-20.695,12.391c0.516,5.779,10.615,9.602,22.559,8.537
		c11.942-1.063,21.208-6.609,20.695-12.389C211.84,10.132,201.742,6.308,189.797,7.372z M191.685,28.171
		c-11.823,1.053-21.821-2.734-22.33-8.453c-0.511-5.723,8.661-11.213,20.485-12.266c11.823-1.053,21.823,2.732,22.332,8.453
		C212.679,21.626,203.508,27.118,191.685,28.171z"/>
	
		<linearGradient id="SVGID_5_" gradientUnits="userSpaceOnUse" x1="274.7251" y1="-5.585" x2="256.876" y2="-22.0828" gradientTransform="matrix(0.9879 0.1553 -0.1553 0.9879 -71.451 -6.7053)">
		<stop  offset="0.2577" style="stop-color:#E2231A"/>
		<stop  offset="0.5153" style="stop-color:#FFB9A7"/>
		<stop  offset="0.7791" style="stop-color:#E2231A"/>
	</linearGradient>
	<path fill="url(#SVGID_5_)" d="M189.802,7.431c-11.671,1.039-20.728,6.459-20.224,12.107c0.503,5.648,10.372,9.385,22.045,8.346
		c11.672-1.039,20.726-6.461,20.225-12.109C211.343,10.126,201.474,6.39,189.802,7.431z M191.647,27.757
		c-11.554,1.027-21.326-2.672-21.824-8.262c-0.496-5.592,8.467-10.959,20.022-11.986c11.554-1.029,21.324,2.67,21.823,8.262
		C212.167,21.36,203.202,26.728,191.647,27.757z"/>
	
		<linearGradient id="SVGID_6_" gradientUnits="userSpaceOnUse" x1="274.7427" y1="-5.6362" x2="256.8931" y2="-22.1346" gradientTransform="matrix(0.9879 0.1553 -0.1553 0.9879 -71.451 -6.7053)">
		<stop  offset="0.2577" style="stop-color:#E2231A"/>
		<stop  offset="0.5153" style="stop-color:#FFB9A7"/>
		<stop  offset="0.7791" style="stop-color:#E2231A"/>
	</linearGradient>
	<path fill="url(#SVGID_6_)" d="M189.815,7.577c-11.4,1.018-20.243,6.311-19.753,11.826c0.492,5.518,10.132,9.168,21.532,8.152
		c11.399-1.014,20.245-6.309,19.753-11.826C210.857,10.212,201.215,6.563,189.815,7.577z M191.618,27.433
		c-11.287,1.004-20.83-2.609-21.317-8.07c-0.483-5.461,8.271-10.705,19.556-11.707c11.287-1.006,20.83,2.607,21.315,8.068
		C211.659,21.185,202.904,26.427,191.618,27.433z"/>
	
		<linearGradient id="SVGID_7_" gradientUnits="userSpaceOnUse" x1="274.7778" y1="-5.7534" x2="256.928" y2="-22.252" gradientTransform="matrix(0.9879 0.1553 -0.1553 0.9879 -71.451 -6.7053)">
		<stop  offset="0.2577" style="stop-color:#E2231A"/>
		<stop  offset="0.5153" style="stop-color:#FFB9A7"/>
		<stop  offset="0.7791" style="stop-color:#E2231A"/>
	</linearGradient>
	<path fill="url(#SVGID_7_)" d="M189.84,7.853c-10.858,0.967-19.281,6.01-18.814,11.264c0.469,5.254,9.65,8.73,20.507,7.764
		c10.857-0.967,19.281-6.01,18.813-11.264S200.698,6.886,189.84,7.853z M191.555,26.761c-10.747,0.957-19.837-2.482-20.301-7.686
		c-0.463-5.199,7.877-10.191,18.625-11.148c10.747-0.957,19.837,2.484,20.302,7.686C210.642,20.812,202.304,25.804,191.555,26.761z"
		/>
	
		<linearGradient id="SVGID_8_" gradientUnits="userSpaceOnUse" x1="274.7593" y1="-5.688" x2="256.9087" y2="-22.1872" gradientTransform="matrix(0.9879 0.1553 -0.1553 0.9879 -71.451 -6.7053)">
		<stop  offset="0.2577" style="stop-color:#E2231A"/>
		<stop  offset="0.5153" style="stop-color:#FFB9A7"/>
		<stop  offset="0.7791" style="stop-color:#E2231A"/>
	</linearGradient>
	<path fill="url(#SVGID_8_)" d="M189.829,7.726c-11.129,0.99-19.764,6.16-19.283,11.547c0.479,5.385,9.891,8.945,21.02,7.957
		c11.13-0.992,19.764-6.16,19.284-11.547C210.37,10.298,200.958,6.735,189.829,7.726z M191.588,27.106
		c-11.018,0.982-20.335-2.545-20.809-7.877c-0.475-5.33,8.072-10.449,19.09-11.428c11.018-0.98,20.332,2.545,20.808,7.875
		C211.151,21.009,202.605,26.126,191.588,27.106z"/>
	
		<linearGradient id="SVGID_9_" gradientUnits="userSpaceOnUse" x1="274.8276" y1="-5.9126" x2="256.9778" y2="-22.4111" gradientTransform="matrix(0.9879 0.1553 -0.1553 0.9879 -71.451 -6.7053)">
		<stop  offset="0.2577" style="stop-color:#E2231A"/>
		<stop  offset="0.5153" style="stop-color:#FFB9A7"/>
		<stop  offset="0.7791" style="stop-color:#E2231A"/>
	</linearGradient>
	<path fill="url(#SVGID_9_)" d="M189.829,7.706c-10.713,0.951-19.025,5.928-18.564,11.111c0.462,5.186,9.521,8.615,20.234,7.66
		c10.711-0.953,19.022-5.928,18.561-11.111C209.598,10.183,200.541,6.751,189.829,7.706z M191.519,26.36
		c-10.604,0.945-19.571-2.449-20.028-7.582c-0.457-5.131,7.77-10.057,18.375-11.002c10.605-0.943,19.572,2.451,20.031,7.584
		C210.352,20.491,202.125,25.417,191.519,26.36z"/>
	
		<linearGradient id="SVGID_10_" gradientUnits="userSpaceOnUse" x1="274.8589" y1="-6.0171" x2="257.0099" y2="-22.5148" gradientTransform="matrix(0.9879 0.1553 -0.1553 0.9879 -71.451 -6.7053)">
		<stop  offset="0.2577" style="stop-color:#E2231A"/>
		<stop  offset="0.5153" style="stop-color:#FFB9A7"/>
		<stop  offset="0.7791" style="stop-color:#E2231A"/>
	</linearGradient>
	<path fill="url(#SVGID_10_)" d="M189.83,7.731c-10.479,0.934-18.61,5.801-18.159,10.871c0.453,5.072,9.313,8.428,19.795,7.494
		c10.479-0.934,18.608-5.801,18.157-10.873C209.171,10.153,200.31,6.798,189.83,7.731z M191.485,25.981
		c-10.373,0.924-19.146-2.396-19.594-7.418c-0.446-5.02,7.602-9.838,17.976-10.762c10.375-0.924,19.148,2.396,19.595,7.418
		C209.908,20.239,201.86,25.058,191.485,25.981z"/>
	
		<linearGradient id="SVGID_11_" gradientUnits="userSpaceOnUse" x1="274.8833" y1="-6.0933" x2="257.0338" y2="-22.5915" gradientTransform="matrix(0.9879 0.1553 -0.1553 0.9879 -71.451 -6.7053)">
		<stop  offset="0.2577" style="stop-color:#E2231A"/>
		<stop  offset="0.5153" style="stop-color:#FFB9A7"/>
		<stop  offset="0.7791" style="stop-color:#E2231A"/>
	</linearGradient>
	<path fill="url(#SVGID_11_)" d="M189.836,7.806c-10.248,0.912-18.196,5.672-17.756,10.629c0.441,4.959,9.107,8.24,19.355,7.328
		c10.246-0.912,18.194-5.672,17.754-10.631C208.749,10.175,200.083,6.894,189.836,7.806z M191.456,25.651
		c-10.145,0.902-18.723-2.346-19.158-7.254c-0.438-4.908,7.432-9.619,17.576-10.523c10.144-0.902,18.722,2.344,19.159,7.254
		C209.469,20.036,201.6,24.747,191.456,25.651z"/>
	
		<linearGradient id="SVGID_12_" gradientUnits="userSpaceOnUse" x1="274.9106" y1="-6.1812" x2="257.0603" y2="-22.6802" gradientTransform="matrix(0.9879 0.1553 -0.1553 0.9879 -71.451 -6.7053)">
		<stop  offset="0.2577" style="stop-color:#E2231A"/>
		<stop  offset="0.5153" style="stop-color:#FFB9A7"/>
		<stop  offset="0.7791" style="stop-color:#E2231A"/>
	</linearGradient>
	<path fill="url(#SVGID_12_)" d="M189.84,7.854c-10.014,0.891-17.784,5.543-17.352,10.391c0.431,4.844,8.898,8.051,18.914,7.158
		c10.014-0.891,17.783-5.541,17.352-10.387C208.322,10.171,199.855,6.964,189.84,7.854z M191.422,25.294
		c-9.914,0.883-18.297-2.289-18.725-7.088c-0.428-4.797,7.266-9.4,17.18-10.283c9.912-0.883,18.297,2.291,18.724,7.088
		C209.027,19.808,201.336,24.413,191.422,25.294z"/>
	
		<linearGradient id="SVGID_13_" gradientUnits="userSpaceOnUse" x1="274.9253" y1="-6.2266" x2="257.0756" y2="-22.725" gradientTransform="matrix(0.9879 0.1553 -0.1553 0.9879 -71.451 -6.7053)">
		<stop  offset="0.2577" style="stop-color:#E2231A"/>
		<stop  offset="0.5153" style="stop-color:#FFB9A7"/>
		<stop  offset="0.7791" style="stop-color:#E2231A"/>
	</linearGradient>
	<path fill="url(#SVGID_13_)" d="M189.851,7.981c-9.782,0.873-17.368,5.414-16.948,10.148c0.422,4.734,8.693,7.863,18.475,6.992
		c9.782-0.869,17.37-5.412,16.948-10.146C207.904,10.243,199.632,7.112,189.851,7.981z M191.396,25.017
		c-9.681,0.861-17.87-2.238-18.287-6.924s7.096-9.184,16.776-10.045c9.686-0.861,17.872,2.238,18.289,6.922
		C208.592,19.657,201.08,24.155,191.396,25.017z"/>
	
		<linearGradient id="SVGID_14_" gradientUnits="userSpaceOnUse" x1="274.9712" y1="-6.3721" x2="257.1217" y2="-22.8703" gradientTransform="matrix(0.9879 0.1553 -0.1553 0.9879 -71.451 -6.7053)">
		<stop  offset="0.2577" style="stop-color:#E2231A"/>
		<stop  offset="0.5153" style="stop-color:#FFB9A7"/>
		<stop  offset="0.7791" style="stop-color:#E2231A"/>
	</linearGradient>
	<path fill="url(#SVGID_14_)" d="M189.866,8.14c-9.316,0.83-16.541,5.156-16.141,9.664s8.277,7.49,17.594,6.66
		c9.315-0.83,16.542-5.154,16.142-9.662C207.059,10.292,199.181,7.312,189.866,8.14z M191.338,24.362
		c-9.222,0.822-17.021-2.131-17.418-6.594s6.757-8.744,15.979-9.566c9.222-0.82,17.021,2.131,17.417,6.594
		C207.713,19.259,200.558,23.54,191.338,24.362z"/>
	
		<linearGradient id="SVGID_15_" gradientUnits="userSpaceOnUse" x1="274.939" y1="-6.272" x2="257.0893" y2="-22.7704" gradientTransform="matrix(0.9879 0.1553 -0.1553 0.9879 -71.451 -6.7053)">
		<stop  offset="0.2577" style="stop-color:#E2231A"/>
		<stop  offset="0.5153" style="stop-color:#FFB9A7"/>
		<stop  offset="0.7791" style="stop-color:#E2231A"/>
	</linearGradient>
	<path fill="url(#SVGID_15_)" d="M189.862,8.108c-9.548,0.852-16.955,5.285-16.542,9.906c0.411,4.621,8.483,7.676,18.031,6.828
		c9.551-0.852,16.956-5.285,16.547-9.906C207.485,10.315,199.411,7.259,189.862,8.108z M191.372,24.737
		c-9.452,0.842-17.446-2.184-17.854-6.76c-0.407-4.572,6.927-8.961,16.378-9.805c9.454-0.84,17.447,2.186,17.855,6.758
		C208.157,19.507,200.825,23.897,191.372,24.737z"/>
	
		<ellipse transform="matrix(0.9961 -0.0887 0.0887 0.9961 -0.6608 16.9642)" fill="#E2231A" cx="190.579" cy="15.919" rx="14.866" ry="7.145"/>
	<path fill="#E2231A" d="M192.067,3.39c0,0-19.164,1.834-25.51,9.764C166.557,13.153,175.024,1.476,192.067,3.39z"/>
	<path fill="#E2231A" d="M182.779,2.44c0,0-6.728,0.643-8.956,3.428C173.823,5.868,176.795,1.769,182.779,2.44z"/>
	<g>
		
			<image overflow="visible" width="307" height="188" xlink:href="EF31C2F9.png"  transform="matrix(0.24 0 0 0.24 2.9453 62.4507)">
		</image>
		
			<linearGradient id="SVGID_16_" gradientUnits="userSpaceOnUse" x1="-169.9292" y1="633.8623" x2="-124.2814" y2="659.126" gradientTransform="matrix(1.0992 -0.3872 0.3487 0.9899 -27.483 -614.1605)">
			<stop  offset="0.2577" style="stop-color:#0033A0"/>
			<stop  offset="0.5153" style="stop-color:#DEDDF1"/>
			<stop  offset="0.7791" style="stop-color:#0033A0"/>
		</linearGradient>
		<path fill="url(#SVGID_16_)" d="M73.305,71.097c3.07,8.718-9.729,21.171-28.585,27.813c-18.86,6.643-36.638,4.961-39.708-3.758
			c-3.07-8.717,9.728-21.17,28.586-27.81C52.457,60.698,70.234,62.38,73.305,71.097z"/>
		
			<linearGradient id="SVGID_17_" gradientUnits="userSpaceOnUse" x1="-108.1338" y1="236.2773" x2="-143.069" y2="203.9868" gradientTransform="matrix(0.8558 -0.5173 0.5173 0.8558 39.4614 -169.5608)">
			<stop  offset="0.2577" style="stop-color:#0033A0"/>
			<stop  offset="0.5153" style="stop-color:#DEDDF1"/>
			<stop  offset="0.7791" style="stop-color:#0033A0"/>
		</linearGradient>
		<path fill="url(#SVGID_17_)" d="M33.554,68.259c-17.79,6.265-29.998,17.63-27.267,25.382c2.731,7.75,19.365,8.955,37.155,2.689
			c17.788-6.264,29.998-17.629,27.267-25.382C67.978,63.196,51.343,61.991,33.554,68.259z M43.435,96.141
			c-17.611,6.201-34.079,5.008-36.781-2.664c-2.703-7.674,9.382-18.922,26.992-25.126c17.611-6.201,34.08-5.012,36.782,2.664
			C73.131,78.688,61.046,89.938,43.435,96.141z"/>
		
			<linearGradient id="SVGID_18_" gradientUnits="userSpaceOnUse" x1="-107.9224" y1="236.1699" x2="-142.8584" y2="203.8786" gradientTransform="matrix(0.8558 -0.5173 0.5173 0.8558 39.4614 -169.5608)">
			<stop  offset="0.2577" style="stop-color:#0033A0"/>
			<stop  offset="0.5153" style="stop-color:#DEDDF1"/>
			<stop  offset="0.7791" style="stop-color:#0033A0"/>
		</linearGradient>
		<path fill="url(#SVGID_18_)" d="M33.575,68.319C16.171,74.449,4.229,85.564,6.9,93.148c2.672,7.584,18.945,8.764,36.348,2.635
			c17.404-6.135,29.346-17.248,26.675-24.833C67.25,63.366,50.979,62.188,33.575,68.319z M43.24,95.596
			c-17.226,6.068-33.335,4.9-35.979-2.607c-2.646-7.506,9.177-18.51,26.405-24.577c17.227-6.07,33.337-4.902,35.982,2.604
			C72.292,78.521,60.469,89.527,43.24,95.596z"/>
		
			<linearGradient id="SVGID_19_" gradientUnits="userSpaceOnUse" x1="-107.7373" y1="236.0742" x2="-142.6719" y2="203.7843" gradientTransform="matrix(0.8558 -0.5173 0.5173 0.8558 39.4614 -169.5608)">
			<stop  offset="0.2577" style="stop-color:#0033A0"/>
			<stop  offset="0.5153" style="stop-color:#DEDDF1"/>
			<stop  offset="0.7791" style="stop-color:#0033A0"/>
		</linearGradient>
		<path fill="url(#SVGID_19_)" d="M33.606,68.407C16.59,74.402,4.914,85.27,7.526,92.684c2.613,7.418,18.522,8.568,35.539,2.578
			c17.018-5.998,28.693-16.865,26.081-24.278C66.534,63.565,50.622,62.415,33.606,68.407z M43.058,95.078
			c-16.843,5.932-32.597,4.793-35.183-2.547c-2.586-7.342,8.976-18.1,25.82-24.034c16.845-5.934,32.597-4.793,35.181,2.549
			C71.463,78.385,59.903,89.145,43.058,95.078z"/>
		
			<linearGradient id="SVGID_20_" gradientUnits="userSpaceOnUse" x1="-107.5386" y1="235.9736" x2="-142.4741" y2="203.6828" gradientTransform="matrix(0.8558 -0.5173 0.5173 0.8558 39.4614 -169.5608)">
			<stop  offset="0.2577" style="stop-color:#0033A0"/>
			<stop  offset="0.5153" style="stop-color:#DEDDF1"/>
			<stop  offset="0.7791" style="stop-color:#0033A0"/>
		</linearGradient>
		<path fill="url(#SVGID_20_)" d="M33.632,68.481C17.004,74.34,5.591,84.961,8.145,92.211c2.551,7.246,18.101,8.373,34.73,2.512
			c16.629-5.855,28.043-16.479,25.49-23.726C65.813,63.751,50.262,62.626,33.632,68.481z M42.87,94.545
			c-16.463,5.803-31.857,4.688-34.384-2.488c-2.527-7.172,8.771-17.689,25.233-23.487c16.463-5.797,31.857-4.684,34.383,2.49
			C70.629,78.23,59.331,88.748,42.87,94.545z"/>
		
			<linearGradient id="SVGID_21_" gradientUnits="userSpaceOnUse" x1="-107.4409" y1="235.9219" x2="-142.3754" y2="203.6321" gradientTransform="matrix(0.8558 -0.5173 0.5173 0.8558 39.4614 -169.5608)">
			<stop  offset="0.2577" style="stop-color:#0033A0"/>
			<stop  offset="0.5153" style="stop-color:#DEDDF1"/>
			<stop  offset="0.7791" style="stop-color:#0033A0"/>
		</linearGradient>
		<path fill="url(#SVGID_21_)" d="M33.7,68.673C17.456,74.393,6.31,84.77,8.803,91.848c2.493,7.08,17.682,8.178,33.925,2.455
			C58.97,88.58,70.116,78.207,67.624,71.13C65.132,64.052,49.942,62.95,33.7,68.673z M42.721,94.131
			c-16.078,5.664-31.115,4.574-33.584-2.432C6.67,84.693,17.706,74.42,33.784,68.757c16.077-5.664,31.114-4.574,33.583,2.432
			C69.834,78.195,58.8,88.469,42.721,94.131z"/>
		
			<linearGradient id="SVGID_22_" gradientUnits="userSpaceOnUse" x1="-107.2178" y1="235.8096" x2="-142.1533" y2="203.5188" gradientTransform="matrix(0.8558 -0.5173 0.5173 0.8558 39.4614 -169.5608)">
			<stop  offset="0.2577" style="stop-color:#0033A0"/>
			<stop  offset="0.5153" style="stop-color:#DEDDF1"/>
			<stop  offset="0.7791" style="stop-color:#0033A0"/>
		</linearGradient>
		<path fill="url(#SVGID_22_)" d="M33.823,69.026c-15.47,5.448-26.084,15.329-23.71,22.071c2.375,6.74,16.841,7.789,32.308,2.338
			c15.47-5.449,26.086-15.328,23.711-22.071C63.757,64.624,49.292,63.577,33.823,69.026z M42.416,93.27
			c-15.313,5.395-29.634,4.361-31.984-2.313c-2.351-6.672,8.16-16.457,23.472-21.849c15.312-5.395,29.632-4.357,31.983,2.314
			C68.238,78.096,57.729,87.877,42.416,93.27z"/>
		
			<linearGradient id="SVGID_23_" gradientUnits="userSpaceOnUse" x1="-107.3403" y1="235.8721" x2="-142.2751" y2="203.582" gradientTransform="matrix(0.8558 -0.5173 0.5173 0.8558 39.4614 -169.5608)">
			<stop  offset="0.2577" style="stop-color:#0033A0"/>
			<stop  offset="0.5153" style="stop-color:#DEDDF1"/>
			<stop  offset="0.7791" style="stop-color:#0033A0"/>
		</linearGradient>
		<path fill="url(#SVGID_23_)" d="M33.765,68.862C17.91,74.447,7.029,84.578,9.463,91.486c2.433,6.908,17.261,7.982,33.116,2.398
			c15.857-5.588,26.738-15.717,24.304-22.624C64.448,64.351,49.621,63.278,33.765,68.862z M42.573,93.715
			c-15.695,5.529-30.375,4.467-32.784-2.373c-2.411-6.842,8.362-16.867,24.06-22.396c15.696-5.529,30.374-4.467,32.783,2.373
			C69.041,78.158,58.269,88.188,42.573,93.715z"/>
		
			<linearGradient id="SVGID_24_" gradientUnits="userSpaceOnUse" x1="-106.9131" y1="235.6543" x2="-141.8481" y2="203.364" gradientTransform="matrix(0.8558 -0.5173 0.5173 0.8558 39.4614 -169.5608)">
			<stop  offset="0.2577" style="stop-color:#0033A0"/>
			<stop  offset="0.5153" style="stop-color:#DEDDF1"/>
			<stop  offset="0.7791" style="stop-color:#0033A0"/>
		</linearGradient>
		<path fill="url(#SVGID_24_)" d="M33.758,68.835C18.495,74.213,8.021,83.963,10.362,90.613c2.343,6.65,16.616,7.684,31.88,2.309
			c15.261-5.377,25.735-15.127,23.393-21.776C63.292,64.493,49.02,63.46,33.758,68.835z M42.234,92.756
			c-15.109,5.326-29.236,4.301-31.557-2.281c-2.317-6.586,8.049-16.236,23.16-21.56c15.11-5.32,29.236-4.299,31.557,2.285
			C67.712,77.783,57.343,87.436,42.234,92.756z"/>
		
			<linearGradient id="SVGID_25_" gradientUnits="userSpaceOnUse" x1="-106.7158" y1="235.5547" x2="-141.6523" y2="203.263" gradientTransform="matrix(0.8558 -0.5173 0.5173 0.8558 39.4614 -169.5608)">
			<stop  offset="0.2577" style="stop-color:#0033A0"/>
			<stop  offset="0.5153" style="stop-color:#DEDDF1"/>
			<stop  offset="0.7791" style="stop-color:#0033A0"/>
		</linearGradient>
		<path fill="url(#SVGID_25_)" d="M33.77,68.868C18.838,74.129,8.592,83.666,10.883,90.172c2.293,6.506,16.255,7.521,31.187,2.262
			C57,87.172,67.246,77.633,64.955,71.128C62.661,64.622,48.7,63.61,33.77,68.868z M42.063,92.273
			c-14.78,5.205-28.603,4.205-30.872-2.238c-2.267-6.439,7.876-15.881,22.655-21.087c14.781-5.207,28.603-4.207,30.872,2.234
			C66.987,77.623,56.844,87.066,42.063,92.273z"/>
		
			<linearGradient id="SVGID_26_" gradientUnits="userSpaceOnUse" x1="-106.5732" y1="235.4795" x2="-141.5078" y2="203.1896" gradientTransform="matrix(0.8558 -0.5173 0.5173 0.8558 39.4614 -169.5608)">
			<stop  offset="0.2577" style="stop-color:#0033A0"/>
			<stop  offset="0.5153" style="stop-color:#DEDDF1"/>
			<stop  offset="0.7791" style="stop-color:#0033A0"/>
		</linearGradient>
		<path fill="url(#SVGID_26_)" d="M33.804,68.964c-14.601,5.144-24.62,14.468-22.378,20.829c2.24,6.365,15.893,7.354,30.492,2.207
			c14.6-5.139,24.618-14.467,22.375-20.827C62.054,64.812,48.402,63.823,33.804,68.964z M41.912,91.848
			c-14.452,5.092-27.968,4.109-30.187-2.188c-2.218-6.297,7.701-15.529,22.152-20.618c14.453-5.092,27.967-4.111,30.186,2.186
			C66.282,77.523,56.364,86.754,41.912,91.848z"/>
		
			<linearGradient id="SVGID_27_" gradientUnits="userSpaceOnUse" x1="-106.4019" y1="235.3926" x2="-141.3367" y2="203.1024" gradientTransform="matrix(0.8558 -0.5173 0.5173 0.8558 39.4614 -169.5608)">
			<stop  offset="0.2577" style="stop-color:#0033A0"/>
			<stop  offset="0.5153" style="stop-color:#DEDDF1"/>
			<stop  offset="0.7791" style="stop-color:#0033A0"/>
		</linearGradient>
		<path fill="url(#SVGID_27_)" d="M33.826,69.028C19.558,74.053,9.766,83.17,11.955,89.385c2.19,6.217,15.533,7.184,29.801,2.158
			c14.267-5.025,24.059-14.141,21.868-20.356C61.434,64.968,48.093,64.003,33.826,69.028z M41.751,91.391
			c-14.125,4.979-27.333,4.02-29.501-2.137c-2.168-6.152,7.525-15.174,21.649-20.149c14.123-4.977,27.332-4.02,29.5,2.135
			C65.568,77.393,55.873,86.414,41.751,91.391z"/>
		
			<linearGradient id="SVGID_28_" gradientUnits="userSpaceOnUse" x1="-106.3184" y1="235.3486" x2="-141.2522" y2="203.0594" gradientTransform="matrix(0.8558 -0.5173 0.5173 0.8558 39.4614 -169.5608)">
			<stop  offset="0.2577" style="stop-color:#0033A0"/>
			<stop  offset="0.5153" style="stop-color:#DEDDF1"/>
			<stop  offset="0.7791" style="stop-color:#0033A0"/>
		</linearGradient>
		<path fill="url(#SVGID_28_)" d="M33.882,69.192C19.947,74.1,10.383,83.002,12.522,89.078c2.137,6.07,15.17,7.012,29.104,2.104
			C55.564,86.275,65.128,77.373,62.988,71.3C60.85,65.228,47.818,64.284,33.882,69.192z M41.622,91.033
			c-13.793,4.859-26.695,3.926-28.813-2.086c-2.116-6.01,7.351-14.824,21.146-19.685c13.796-4.857,26.696-3.924,28.813,2.088
			C64.884,77.361,55.419,86.176,41.622,91.033z"/>
		
			<linearGradient id="SVGID_29_" gradientUnits="userSpaceOnUse" x1="-106.04" y1="235.207" x2="-140.9753" y2="202.9165" gradientTransform="matrix(0.8558 -0.5173 0.5173 0.8558 39.4614 -169.5608)">
			<stop  offset="0.2577" style="stop-color:#0033A0"/>
			<stop  offset="0.5153" style="stop-color:#DEDDF1"/>
			<stop  offset="0.7791" style="stop-color:#0033A0"/>
		</linearGradient>
		<path fill="url(#SVGID_29_)" d="M33.953,69.394C20.682,74.068,11.575,82.547,13.61,88.328c2.038,5.785,14.447,6.686,27.721,2.01
			c13.271-4.676,22.38-13.154,20.343-18.937C59.635,65.616,47.226,64.72,33.953,69.394z M41.326,90.195
			c-13.139,4.629-25.427,3.738-27.443-1.988c-2.016-5.721,7.001-14.117,20.14-18.745c13.137-4.627,25.422-3.738,27.44,1.988
			C63.48,77.174,54.464,85.564,41.326,90.195z"/>
		
			<linearGradient id="SVGID_30_" gradientUnits="userSpaceOnUse" x1="-106.2314" y1="235.3057" x2="-141.1666" y2="203.0152" gradientTransform="matrix(0.8558 -0.5173 0.5173 0.8558 39.4614 -169.5608)">
			<stop  offset="0.2577" style="stop-color:#0033A0"/>
			<stop  offset="0.5153" style="stop-color:#DEDDF1"/>
			<stop  offset="0.7791" style="stop-color:#0033A0"/>
		</linearGradient>
		<path fill="url(#SVGID_30_)" d="M33.939,69.356C20.335,74.146,11,82.834,13.088,88.764c2.087,5.93,14.809,6.85,28.412,2.057
			c13.605-4.791,22.941-13.479,20.852-19.407C60.265,65.483,47.542,64.563,33.939,69.356z M41.496,90.678
			c-13.468,4.744-26.06,3.83-28.129-2.039c-2.064-5.865,7.177-14.469,20.644-19.212c13.467-4.744,26.059-3.832,28.128,2.035
			C64.204,77.33,54.963,85.932,41.496,90.678z"/>
		<path fill="#0033A0" d="M58.595,71.935c1.776,5.044-6.229,12.456-17.881,16.56c-11.649,4.107-22.536,3.344-24.312-1.697
			c-1.776-5.041,6.23-12.457,17.88-16.562C45.934,66.132,56.819,66.894,58.595,71.935z"/>
	</g>
	<path fill="#0033A0" d="M13.62,75.561c0,0-13.292,11.578-13.62,21.816C0,97.377-0.175,82.76,13.62,75.561z"/>
	<path fill="#0033A0" d="M6.154,79.564c0,0-4.666,4.066-4.78,7.658C1.374,87.223,1.313,82.094,6.154,79.564z"/>
	<path fill="#0033A0" d="M80.575,71.583c0,0,3.205,4.661,0.032,9.685C80.606,81.268,85.492,77.15,80.575,71.583z"/>
	<path fill="#0033A0" d="M75.743,67.39c0,0,6.485,9.427,0.065,19.591C75.808,86.98,85.692,78.648,75.743,67.39z"/>
	<image overflow="visible" width="245" height="141" xlink:href="EF31C2FB.png"  transform="matrix(0.24 0 0 0.24 311.8853 0)">
	</image>
	
		<linearGradient id="SVGID_31_" gradientUnits="userSpaceOnUse" x1="158.1343" y1="-125.3311" x2="192.6274" y2="-106.2409" gradientTransform="matrix(1.1976 0.0316 -0.0303 1.1532 126.3108 141.8604)">
		<stop  offset="0.1043" style="stop-color:#D1D3D4"/>
		<stop  offset="0.5153" style="stop-color:#FFFFFF"/>
		<stop  offset="0.9141" style="stop-color:#D1D3D4"/>
	</linearGradient>
	<path fill="url(#SVGID_31_)" d="M369.57,16.201c-0.084,7.89-12.556,13.75-27.858,13.095c-15.304-0.656-27.64-7.58-27.556-15.469
		c0.081-7.886,12.553-13.747,27.856-13.091S369.653,8.315,369.57,16.201z"/>
	
		<linearGradient id="SVGID_32_" gradientUnits="userSpaceOnUse" x1="217.4702" y1="14.4868" x2="188.9581" y2="-11.8668" gradientTransform="matrix(0.9535 -0.3013 0.3013 0.9535 152.9854 76.7345)">
		<stop  offset="0.2577" style="stop-color:#E2231A"/>
		<stop  offset="0.5153" style="stop-color:#FFB9A7"/>
		<stop  offset="0.7791" style="stop-color:#E2231A"/>
	</linearGradient>
	<path fill="url(#SVGID_32_)" d="M341.739,1.449c-14.435-0.619-26.196,4.566-26.27,11.579c-0.075,7.014,11.568,13.203,26.002,13.818
		c14.435,0.62,26.196-4.565,26.271-11.578C367.816,8.254,356.175,2.066,341.739,1.449z M341.515,26.693
		c-14.289-0.61-25.812-6.734-25.74-13.68c0.075-6.941,11.719-12.074,26.006-11.462c14.291,0.614,25.814,6.739,25.743,13.679
		C367.451,22.175,355.806,27.305,341.515,26.693z"/>
	
		<linearGradient id="SVGID_33_" gradientUnits="userSpaceOnUse" x1="217.6685" y1="14.395" x2="189.1553" y2="-11.9595" gradientTransform="matrix(0.9535 -0.3013 0.3013 0.9535 152.9854 76.7345)">
		<stop  offset="0.2577" style="stop-color:#E2231A"/>
		<stop  offset="0.5153" style="stop-color:#FFB9A7"/>
		<stop  offset="0.7791" style="stop-color:#E2231A"/>
	</linearGradient>
	<path fill="url(#SVGID_33_)" d="M341.74,1.503c-14.122-0.604-25.629,4.466-25.7,11.326c-0.072,6.864,11.316,12.916,25.438,13.521
		c14.12,0.606,25.628-4.467,25.698-11.329C367.249,8.162,355.86,2.107,341.74,1.503z M341.519,26.2
		c-13.979-0.6-25.255-6.59-25.18-13.38c0.072-6.792,11.463-11.814,25.441-11.216c13.977,0.599,25.252,6.591,25.18,13.381
		C366.889,21.78,355.5,26.799,341.519,26.2z"/>
	
		<linearGradient id="SVGID_34_" gradientUnits="userSpaceOnUse" x1="217.8423" y1="14.3145" x2="189.3305" y2="-12.0388" gradientTransform="matrix(0.9535 -0.3013 0.3013 0.9535 152.9854 76.7345)">
		<stop  offset="0.2577" style="stop-color:#E2231A"/>
		<stop  offset="0.5153" style="stop-color:#FFB9A7"/>
		<stop  offset="0.7791" style="stop-color:#E2231A"/>
	</linearGradient>
	<path fill="url(#SVGID_34_)" d="M341.739,1.583c-13.808-0.592-25.058,4.366-25.128,11.075c-0.074,6.709,11.064,12.628,24.871,13.22
		c13.808,0.591,25.057-4.368,25.129-11.076C366.681,8.094,355.545,2.178,341.739,1.583z M341.525,25.733
		c-13.67-0.584-24.692-6.446-24.624-13.084c0.072-6.644,11.209-11.552,24.878-10.967c13.668,0.586,24.693,6.445,24.62,13.084
		C366.331,21.41,355.193,26.317,341.525,25.733z"/>
	
		<linearGradient id="SVGID_35_" gradientUnits="userSpaceOnUse" x1="218.0288" y1="14.2285" x2="189.517" y2="-12.1248" gradientTransform="matrix(0.9535 -0.3013 0.3013 0.9535 152.9854 76.7345)">
		<stop  offset="0.2577" style="stop-color:#E2231A"/>
		<stop  offset="0.5153" style="stop-color:#FFB9A7"/>
		<stop  offset="0.7791" style="stop-color:#E2231A"/>
	</linearGradient>
	<path fill="url(#SVGID_35_)" d="M341.738,1.651c-13.493-0.577-24.49,4.269-24.559,10.826c-0.068,6.556,10.813,12.338,24.307,12.916
		c13.493,0.58,24.49-4.268,24.559-10.825C366.114,8.013,355.232,2.229,341.738,1.651z M341.531,25.25
		c-13.359-0.571-24.133-6.297-24.066-12.788c0.07-6.493,10.955-11.287,24.313-10.716c13.356,0.574,24.132,6.297,24.061,12.785
		C365.77,21.027,354.886,25.823,341.531,25.25z"/>
	
		<linearGradient id="SVGID_36_" gradientUnits="userSpaceOnUse" x1="218.1226" y1="14.1865" x2="189.61" y2="-12.1676" gradientTransform="matrix(0.9535 -0.3013 0.3013 0.9535 152.9854 76.7345)">
		<stop  offset="0.2577" style="stop-color:#E2231A"/>
		<stop  offset="0.5153" style="stop-color:#FFB9A7"/>
		<stop  offset="0.7791" style="stop-color:#E2231A"/>
	</linearGradient>
	<path fill="url(#SVGID_36_)" d="M341.736,1.824c-13.181-0.565-23.92,4.167-23.986,10.57c-0.068,6.405,10.563,12.054,23.743,12.619
		c13.179,0.564,23.918-4.17,23.984-10.573C365.544,8.036,354.917,2.389,341.736,1.824z M341.53,24.875
		c-13.046-0.558-23.569-6.153-23.501-12.491c0.065-6.339,10.697-11.025,23.744-10.467c13.049,0.56,23.57,6.151,23.505,12.493
		C365.21,20.748,354.578,25.435,341.53,24.875z"/>
	
		<linearGradient id="SVGID_37_" gradientUnits="userSpaceOnUse" x1="218.3296" y1="14.0898" x2="189.8182" y2="-12.2631" gradientTransform="matrix(0.9535 -0.3013 0.3013 0.9535 152.9854 76.7345)">
		<stop  offset="0.2577" style="stop-color:#E2231A"/>
		<stop  offset="0.5153" style="stop-color:#FFB9A7"/>
		<stop  offset="0.7791" style="stop-color:#E2231A"/>
	</linearGradient>
	<path fill="url(#SVGID_37_)" d="M341.732,2.142c-12.552-0.536-22.78,3.971-22.844,10.07c-0.064,6.102,10.059,11.479,22.612,12.017
		c12.55,0.538,22.777-3.971,22.842-10.071C364.408,8.063,354.285,2.678,341.732,2.142z M341.538,24.096
		c-12.426-0.531-22.446-5.858-22.384-11.896c0.063-6.037,10.187-10.501,22.614-9.967c12.426,0.531,22.447,5.858,22.384,11.896
		C364.088,20.163,353.962,24.628,341.538,24.096z"/>
	
		<linearGradient id="SVGID_38_" gradientUnits="userSpaceOnUse" x1="218.2163" y1="14.145" x2="189.7045" y2="-12.2083" gradientTransform="matrix(0.9535 -0.3013 0.3013 0.9535 152.9854 76.7345)">
		<stop  offset="0.2577" style="stop-color:#E2231A"/>
		<stop  offset="0.5153" style="stop-color:#FFB9A7"/>
		<stop  offset="0.7791" style="stop-color:#E2231A"/>
	</linearGradient>
	<path fill="url(#SVGID_38_)" d="M341.732,1.995c-12.864-0.552-23.348,4.07-23.413,10.323c-0.068,6.25,10.311,11.766,23.174,12.315
		c12.867,0.547,23.351-4.069,23.419-10.322C364.974,8.062,354.599,2.547,341.732,1.995z M341.536,24.497
		c-12.736-0.544-23.011-6.003-22.945-12.195c0.065-6.185,10.446-10.761,23.181-10.214c12.736,0.546,23.008,6.003,22.944,12.191
		C364.648,20.466,354.272,25.043,341.536,24.497z"/>
	
		<linearGradient id="SVGID_39_" gradientUnits="userSpaceOnUse" x1="218.6138" y1="13.958" x2="190.103" y2="-12.3944" gradientTransform="matrix(0.9535 -0.3013 0.3013 0.9535 152.9854 76.7345)">
		<stop  offset="0.2577" style="stop-color:#E2231A"/>
		<stop  offset="0.5153" style="stop-color:#FFB9A7"/>
		<stop  offset="0.7791" style="stop-color:#E2231A"/>
	</linearGradient>
	<path fill="url(#SVGID_39_)" d="M341.735,1.971c-12.386-0.53-22.477,3.918-22.539,9.934c-0.063,6.021,9.923,11.326,22.308,11.856
		c12.387,0.532,22.477-3.917,22.538-9.933C364.106,7.811,354.121,2.501,341.735,1.971z M341.542,23.631
		c-12.259-0.522-22.149-5.781-22.085-11.738c0.063-5.954,10.053-10.359,22.313-9.833c12.259,0.523,22.147,5.778,22.085,11.736
		C363.792,19.752,353.801,24.155,341.542,23.631z"/>
	
		<linearGradient id="SVGID_40_" gradientUnits="userSpaceOnUse" x1="218.8013" y1="13.874" x2="190.288" y2="-12.4807" gradientTransform="matrix(0.9535 -0.3013 0.3013 0.9535 152.9854 76.7345)">
		<stop  offset="0.2577" style="stop-color:#E2231A"/>
		<stop  offset="0.5153" style="stop-color:#FFB9A7"/>
		<stop  offset="0.7791" style="stop-color:#E2231A"/>
	</linearGradient>
	<path fill="url(#SVGID_40_)" d="M341.736,2c-12.119-0.517-21.989,3.833-22.052,9.718c-0.063,5.889,9.708,11.083,21.827,11.604
		c12.112,0.517,21.983-3.833,22.048-9.722C363.622,7.713,353.849,2.52,341.736,2z M341.545,23.191
		c-11.992-0.515-21.666-5.654-21.605-11.482c0.063-5.827,9.835-10.135,21.828-9.621c11.993,0.515,21.669,5.654,21.607,11.481
		C363.313,19.399,353.54,23.707,341.545,23.191z"/>
	
		<linearGradient id="SVGID_41_" gradientUnits="userSpaceOnUse" x1="218.9351" y1="13.8125" x2="190.4234" y2="-12.5407" gradientTransform="matrix(0.9535 -0.3013 0.3013 0.9535 152.9854 76.7345)">
		<stop  offset="0.2577" style="stop-color:#E2231A"/>
		<stop  offset="0.5153" style="stop-color:#FFB9A7"/>
		<stop  offset="0.7791" style="stop-color:#E2231A"/>
	</linearGradient>
	<path fill="url(#SVGID_41_)" d="M341.733,2.087c-11.847-0.508-21.5,3.746-21.559,9.504c-0.063,5.755,9.494,10.833,21.339,11.338
		c11.846,0.509,21.5-3.745,21.56-9.501C363.133,7.674,353.581,2.596,341.733,2.087z M341.55,22.809
		c-11.727-0.504-21.188-5.532-21.128-11.232c0.062-5.696,9.619-9.908,21.345-9.405c11.727,0.5,21.186,5.528,21.127,11.227
		C362.833,19.097,353.277,23.31,341.55,22.809z"/>
	
		<linearGradient id="SVGID_42_" gradientUnits="userSpaceOnUse" x1="219.0962" y1="13.7402" x2="190.5832" y2="-12.6142" gradientTransform="matrix(0.9535 -0.3013 0.3013 0.9535 152.9854 76.7345)">
		<stop  offset="0.2577" style="stop-color:#E2231A"/>
		<stop  offset="0.5153" style="stop-color:#FFB9A7"/>
		<stop  offset="0.7791" style="stop-color:#E2231A"/>
	</linearGradient>
	<path fill="url(#SVGID_42_)" d="M341.731,2.146c-11.576-0.498-21.009,3.662-21.068,9.286c-0.061,5.625,9.276,10.585,20.854,11.085
		c11.576,0.496,21.013-3.663,21.071-9.29C362.646,7.604,353.309,2.641,341.731,2.146z M341.553,22.395
		c-11.461-0.492-20.704-5.405-20.645-10.972c0.059-5.57,9.397-9.686,20.857-9.198c11.461,0.495,20.705,5.407,20.646,10.975
		C362.352,18.768,353.012,22.885,341.553,22.395z"/>
	
		<linearGradient id="SVGID_43_" gradientUnits="userSpaceOnUse" x1="219.1772" y1="13.7036" x2="190.6628" y2="-12.6522" gradientTransform="matrix(0.9535 -0.3013 0.3013 0.9535 152.9854 76.7345)">
		<stop  offset="0.2577" style="stop-color:#E2231A"/>
		<stop  offset="0.5153" style="stop-color:#FFB9A7"/>
		<stop  offset="0.7791" style="stop-color:#E2231A"/>
	</linearGradient>
	<path fill="url(#SVGID_43_)" d="M341.73,2.292c-11.307-0.483-20.521,3.577-20.581,9.071c-0.058,5.496,9.065,10.344,20.374,10.826
		c11.305,0.484,20.518-3.574,20.579-9.069C362.159,7.624,353.039,2.778,341.73,2.292z M341.554,22.068
		c-11.19-0.479-20.221-5.275-20.164-10.716c0.058-5.438,9.178-9.458,20.373-8.98c11.193,0.479,20.222,5.279,20.165,10.718
		C361.871,18.53,352.75,22.548,341.554,22.068z"/>
	
		<linearGradient id="SVGID_44_" gradientUnits="userSpaceOnUse" x1="219.436" y1="13.583" x2="190.9225" y2="-12.7719" gradientTransform="matrix(0.9535 -0.3013 0.3013 0.9535 152.9854 76.7345)">
		<stop  offset="0.2577" style="stop-color:#E2231A"/>
		<stop  offset="0.5153" style="stop-color:#FFB9A7"/>
		<stop  offset="0.7791" style="stop-color:#E2231A"/>
	</linearGradient>
	<path fill="url(#SVGID_44_)" d="M341.729,2.476c-10.769-0.459-19.546,3.407-19.602,8.639c-0.054,5.232,8.632,9.848,19.402,10.312
		c10.768,0.459,19.543-3.408,19.599-8.639C361.184,7.555,352.498,2.938,341.729,2.476z M341.561,21.311
		c-10.659-0.458-19.259-5.024-19.204-10.205c0.057-5.181,8.742-9.009,19.404-8.553c10.657,0.455,19.258,5.025,19.203,10.205
		C360.91,17.938,352.224,21.769,341.561,21.311z"/>
	
		<linearGradient id="SVGID_45_" gradientUnits="userSpaceOnUse" x1="219.2573" y1="13.667" x2="190.7435" y2="-12.6882" gradientTransform="matrix(0.9535 -0.3013 0.3013 0.9535 152.9854 76.7345)">
		<stop  offset="0.2577" style="stop-color:#E2231A"/>
		<stop  offset="0.5153" style="stop-color:#FFB9A7"/>
		<stop  offset="0.7791" style="stop-color:#E2231A"/>
	</linearGradient>
	<path fill="url(#SVGID_45_)" d="M341.726,2.439c-11.034-0.473-20.03,3.492-20.088,8.858c-0.055,5.361,8.845,10.093,19.885,10.563
		c11.04,0.477,20.036-3.491,20.092-8.852C361.672,7.644,352.767,2.913,341.726,2.439z M341.557,21.748
		c-10.926-0.469-19.74-5.153-19.687-10.465c0.058-5.306,8.965-9.229,19.89-8.764c10.929,0.468,19.741,5.151,19.688,10.461
		C361.39,18.292,352.487,22.214,341.557,21.748z"/>
	<path fill="#F1F2F2" d="M358.775,12.243c-0.049,4.561-7.751,7.931-17.207,7.528c-9.451-0.408-17.078-4.433-17.031-8.997
		c0.052-4.561,7.752-7.93,17.206-7.524C351.2,3.654,358.824,7.681,358.775,12.243z"/>
	<path fill="#E2231A" d="M218.573,15.253c0,0,1.597,2.322,0.016,4.824C218.588,20.077,221.022,18.026,218.573,15.253z"/>
	<path fill="#E2231A" d="M216.167,13.163c0,0,3.229,4.697,0.031,9.76C216.198,22.923,221.122,18.772,216.167,13.163z"/>
	<path fill="#BCBEC0" d="M374.307,16.708c0,0,1.818,4.201-1.686,7.775C372.622,24.482,377.378,21.881,374.307,16.708z"/>
	<path fill="#BCBEC0" d="M371.289,12.515c0,0,3.679,8.499-3.413,15.734C367.875,28.249,377.5,22.983,371.289,12.515z"/>
	<path fill="#BCBEC0" d="M307.516,11.329c0,0-0.435-4.549,4.025-6.714C311.542,4.614,306.187,5.444,307.516,11.329z"/>
	<path fill="#BCBEC0" d="M309.355,16.228c0,0-0.882-9.205,8.142-13.582C317.497,2.646,306.665,4.326,309.355,16.228z"/>
	<g>
		<path fill="#E2231A" d="M142.446,113.935c-1.688-2.734-4.959-4.605-11.663-4.518c-4.92,0.064-7.036,1.385-5.83,4.014
			c0.616,1.342,2.021,2.111,4.389,2.418c3.947,0.512,15.896,1.875,20.508,2.49c8.771,1.18,15.077,4.135,18.311,11.182
			c6.209,13.531-13.052,13.895-19.079,13.973c-14.884,0.193-26.75-2.072-32.718-13.188l17.345-0.225
			c1.754,3.014,4.472,4.891,12.098,4.791c3.69-0.047,7.329-0.881,5.763-4.293c-0.975-2.125-3.154-2.828-8.592-3.488l-15.561-1.822
			c-9.606-1.115-15.011-5.207-17.73-11.133c-2.412-5.258-2.258-12.74,16.993-12.99c15.929-0.207,27.115,3.135,32.375,12.574
			L142.446,113.935z"/>
	</g>
	<g>
		<path fill="#E2231A" d="M360.237,105.479c0.022,0.426,0.119,0.771,0.29,1.037c0.325,0.497,0.897,0.746,1.718,0.746
			c0.367,0,0.702-0.055,1.004-0.164c0.585-0.211,0.877-0.589,0.877-1.134c0-0.409-0.124-0.7-0.372-0.874
			c-0.25-0.17-0.644-0.318-1.178-0.444l-0.985-0.23c-0.644-0.149-1.099-0.314-1.366-0.495c-0.462-0.313-0.693-0.782-0.693-1.405
			c0-0.675,0.228-1.229,0.682-1.661s1.098-0.648,1.93-0.648c0.766,0,1.416,0.189,1.951,0.569c0.536,0.38,0.804,0.987,0.804,1.821
			h-0.956c-0.049-0.401-0.153-0.71-0.313-0.925c-0.297-0.392-0.802-0.587-1.514-0.587c-0.575,0-0.988,0.126-1.239,0.378
			c-0.252,0.252-0.378,0.545-0.378,0.879c0,0.368,0.148,0.637,0.446,0.808c0.194,0.108,0.635,0.245,1.321,0.408l1.021,0.24
			c0.491,0.116,0.871,0.274,1.139,0.476c0.462,0.351,0.693,0.86,0.693,1.527c0,0.832-0.295,1.426-0.885,1.784
			c-0.59,0.357-1.275,0.536-2.056,0.536c-0.91,0-1.623-0.238-2.138-0.716c-0.516-0.473-0.768-1.115-0.758-1.926H360.237z"/>
		<path fill="#E2231A" d="M366.527,100.394h1.457l2.158,6.347l2.144-6.347h1.446v7.507h-0.971v-4.431
			c0-0.153,0.003-0.407,0.01-0.761c0.007-0.354,0.011-0.734,0.011-1.14l-2.144,6.331h-1.007l-2.164-6.331v0.229
			c0,0.185,0.005,0.465,0.016,0.841c0.01,0.376,0.015,0.653,0.015,0.83v4.431h-0.971V100.394z"/>
	</g>
</g>
</svg>
