<?xml version="1.0" encoding="utf-8"?>
<!-- Generator: Adobe Illustrator 16.2.0, SVG Export Plug-In . SVG Version: 6.00 Build 0)  -->
<!DOCTYPE svg PUBLIC "-//W3C//DTD SVG 1.1//EN" "http://www.w3.org/Graphics/SVG/1.1/DTD/svg11.dtd">
<svg version="1.1" id="Layer_1" xmlns="http://www.w3.org/2000/svg" xmlns:xlink="http://www.w3.org/1999/xlink" x="0px" y="0px"
	 width="300px" height="200px" viewBox="0 0 300 200" enable-background="new 0 0 300 200" xml:space="preserve">
<rect fill="#2166BF" width="300" height="200"/>
<g>
	<g enable-background="new    ">
		<path fill="#FFFFFF" d="M196.948,124.221c-0.194-0.486-0.323-0.784-0.323-2.317v-2.964c0-1.751-0.711-2.398-2.331-2.398h-1.23
			v7.678h-3.561v-18.855h5.374c3.69,0,5.277,1.43,5.277,4.337v1.48c0,1.939-0.745,3.206-2.331,3.826
			c1.782,0.619,2.362,2.047,2.362,4.015v2.908c0,0.916,0.033,1.589,0.391,2.289h-3.627L196.948,124.221L196.948,124.221z
			 M193.063,108.058v5.792h1.392c1.327,0,2.137-0.484,2.137-1.993v-1.858c0-1.348-0.552-1.941-1.814-1.941L193.063,108.058
			L193.063,108.058z"/>
		<path fill="#FFFFFF" d="M202.228,109.89c0-3.017,1.91-4.741,5.407-4.741c3.496,0,5.407,1.726,5.407,4.741v9.806
			c0,3.018-1.911,4.741-5.407,4.741c-3.497,0-5.407-1.724-5.407-4.741V109.89z M205.787,119.883c0,1.346,0.713,1.858,1.848,1.858
			c1.134,0,1.848-0.513,1.848-1.858v-10.182c0-1.347-0.714-1.858-1.848-1.858c-1.135,0-1.848,0.512-1.848,1.858V119.883z"/>
		<path fill="#FFFFFF" d="M222.788,124.221c-0.194-0.486-0.325-0.784-0.325-2.317v-2.964c0-1.751-0.711-2.398-2.331-2.398h-1.229
			v7.678h-3.562v-18.855h5.376c3.688,0,5.276,1.43,5.276,4.337v1.48c0,1.939-0.743,3.206-2.33,3.826
			c1.781,0.619,2.361,2.047,2.361,4.015v2.908c0,0.916,0.031,1.589,0.391,2.289h-3.627L222.788,124.221L222.788,124.221z
			 M218.901,108.058v5.792h1.393c1.326,0,2.136-0.484,2.136-1.993v-1.858c0-1.348-0.552-1.941-1.814-1.941L218.901,108.058
			L218.901,108.058z"/>
	</g>
	<g enable-background="new    ">
		<path fill="#FFFFFF" d="M169.117,142.532c-0.133-0.397-0.221-0.639-0.221-1.896v-2.424c0-1.434-0.484-1.963-1.586-1.963h-0.838
			v6.282h-2.426v-15.432h3.659c2.513,0,3.593,1.169,3.593,3.551v1.211c0,1.586-0.505,2.623-1.584,3.13
			c1.21,0.508,1.608,1.677,1.608,3.287v2.38c0,0.75,0.021,1.299,0.263,1.873H169.117L169.117,142.532z M166.471,129.308v4.738h0.947
			c0.902,0,1.454-0.396,1.454-1.63v-1.521c0-1.104-0.373-1.587-1.233-1.587H166.471z"/>
		<path fill="#FFFFFF" d="M172.709,130.805c0-2.469,1.302-3.88,3.683-3.88c2.38,0,3.682,1.411,3.682,3.88v8.026
			c0,2.469-1.302,3.879-3.682,3.879c-2.381,0-3.683-1.41-3.683-3.879V130.805z M175.134,138.985c0,1.102,0.485,1.521,1.258,1.521
			c0.771,0,1.258-0.419,1.258-1.521v-8.333c0-1.104-0.486-1.523-1.258-1.523c-0.772,0-1.258,0.419-1.258,1.523V138.985z"/>
		<path fill="#FFFFFF" d="M188.892,130.651v0.55c0,1.588-0.485,2.603-1.565,3.107c1.3,0.509,1.809,1.677,1.809,3.309v1.255
			c0,2.382-1.259,3.659-3.683,3.659h-3.815V127.1h3.661C187.81,127.101,188.892,128.271,188.892,130.651z M184.063,129.308v4.078
			h0.948c0.903,0,1.454-0.397,1.454-1.633v-0.858c0-1.104-0.373-1.587-1.233-1.587H184.063z M184.063,135.589v4.739h1.39
			c0.814,0,1.257-0.374,1.257-1.521v-1.346c0-1.433-0.463-1.872-1.566-1.872L184.063,135.589L184.063,135.589L184.063,135.589z"/>
		<path fill="#FFFFFF" d="M190.389,130.805c0-2.469,1.301-3.88,3.683-3.88s3.683,1.411,3.683,3.88v8.026
			c0,2.469-1.301,3.879-3.683,3.879s-3.683-1.41-3.683-3.879V130.805z M192.814,138.985c0,1.102,0.484,1.521,1.257,1.521
			s1.256-0.419,1.256-1.521v-8.333c0-1.104-0.483-1.523-1.256-1.523s-1.257,0.419-1.257,1.523V138.985z"/>
		<path fill="#FFFFFF" d="M198.611,127.101h7.496v2.205h-2.536v13.229h-2.424v-13.229h-2.534v-2.205H198.611z"/>
		<path fill="#FFFFFF" d="M207.165,127.101h2.426v15.434h-2.426V127.101z"/>
		<path fill="#FFFFFF" d="M218.385,136.779v2.049c0,2.472-1.232,3.882-3.615,3.882c-2.381,0-3.616-1.41-3.616-3.882v-8.023
			c0-2.469,1.235-3.88,3.616-3.88c2.383,0,3.615,1.411,3.615,3.88v1.497h-2.294v-1.65c0-1.104-0.484-1.523-1.257-1.523
			c-0.771,0-1.255,0.42-1.255,1.523v8.334c0,1.102,0.483,1.497,1.255,1.497c0.772,0,1.257-0.396,1.257-1.497v-2.206H218.385
			L218.385,136.779z"/>
		<path fill="#FFFFFF" d="M223.122,126.925c2.36,0,3.573,1.411,3.573,3.88v0.485h-2.294v-0.638c0-1.102-0.441-1.521-1.212-1.521
			c-0.771,0-1.213,0.42-1.213,1.521c0,3.176,4.741,3.771,4.741,8.179c0,2.469-1.235,3.88-3.614,3.88
			c-2.383,0-3.616-1.411-3.616-3.88v-0.948h2.291v1.104c0,1.103,0.485,1.499,1.257,1.499c0.772,0,1.258-0.397,1.258-1.499
			c0-3.176-4.742-3.77-4.742-8.179C219.552,128.336,220.765,126.925,223.122,126.925z"/>
	</g>
	<g enable-background="new    ">
		<path fill="#FFFFFF" d="M139.635,115.193l3.51-23.264h7.162v32.765h-4.868v-23.498l-3.557,23.496h-4.867l-3.839-23.168v23.168
			h-4.493V91.93h7.161L139.635,115.193z"/>
		<path fill="#FFFFFF" d="M169.311,100.026v4.259c0,5.243-2.529,8.098-7.678,8.098h-2.434v12.31h-5.147V91.93h7.581
			C166.783,91.93,169.311,94.784,169.311,100.026z M159.199,96.61v11.094h2.434c1.639,0,2.529-0.75,2.529-3.091V99.7
			c0-2.34-0.891-3.09-2.529-3.09H159.199z"/>
		<path fill="#FFFFFF" d="M187.753,124.692h-5.195l-0.892-5.944h-6.318l-0.89,5.944h-4.728l5.242-32.763h7.534L187.753,124.692z
			 M176.006,114.303h4.96l-2.48-16.568L176.006,114.303z"/>
	</g>
</g>
<g>
	<g>
		<path fill="none" d="M77.91,163.348c-17.683,0-35.365,0.002-53.047-0.012c-0.106,0-0.306-0.186-0.306-0.283
			c-0.013-31.423-0.013-62.846,0-94.269c0-0.099,0.2-0.284,0.306-0.284c35.364-0.012,70.728-0.012,106.093,0
			c0.106,0,0.305,0.185,0.305,0.284c0.014,31.423,0.014,62.845,0,94.269c0,0.099-0.199,0.283-0.305,0.283
			C113.274,163.35,95.591,163.348,77.91,163.348z M45.596,140.032c3.043,0.054,5.153,2.048,4.937,4.671
			c-0.08,0.987-0.521,1.994-1.006,2.893c-0.653,1.209-0.462,2.115,0.617,2.987c1.137,0.919,2.17,0.742,3.221-0.085
			c1.833-1.444,3.85-2.222,6.167-1.1c2.293,1.11,2.933,3.039,2.498,5.267c-0.348,1.778,0.324,3.032,2.198,3.106
			c0.877,0.034,2.054-0.855,2.659-1.622c1.513-1.92,3.382-2.916,5.482-2.53c2.241,0.408,3.569,2.079,4.227,4.59
			c0.196,0.75,1.335,1.567,2.219,1.817c1.324,0.373,2.283-0.375,2.562-1.704c0.616-2.938,1.975-4.47,4.277-4.836
			c2.236-0.356,4.124,0.62,5.61,2.986c0.891,1.418,2.226,1.534,3.428,0.729c0.658-0.441,1.19-1.598,1.09-2.354
			c-0.334-2.529,0.31-4.545,2.186-5.634c1.903-1.105,3.968-0.89,6.226,0.753c1.096,0.798,2.097,1.109,3.33,0.238
			c1.388-0.983,1.295-2.031,0.518-3.321c-1.823-3.021-0.888-6.159,2.212-7.052c1.134-0.328,2.589-0.312,3.703,0.056
			c1.886,0.622,2.865,0.113,3.68-1.439c0.792-1.507-0.421-2.088-1.284-2.872c-1.591-1.438-2.419-3.122-1.667-5.172
			c0.74-2.016,2.429-2.981,4.656-3.007c1.696-0.021,2.904-0.378,3.146-2.183c0.182-1.353-0.422-2.042-1.75-2.496
			c-2.257-0.773-3.883-2.133-3.882-4.562c0.002-2.497,1.722-3.791,4.024-4.545c1.91-0.627,1.63-1.98,1.099-3.158
			c-0.266-0.591-1.277-1.205-1.995-1.253c-2.427-0.165-4.541-0.717-5.6-2.944c-0.914-1.919-0.209-3.867,2.018-5.669
			c1.264-1.021,1.283-2.199,0.281-3.122c-0.617-0.569-1.944-0.924-2.795-0.74c-2.319,0.502-4.469,0.698-6.216-1.096
			c-1.574-1.618-1.648-3.565-0.247-5.844c0.798-1.301,0.624-2.473-0.75-3.042c-0.829-0.342-2.055-0.104-3.021,0.142
			c-1.401,0.355-2.707,1.302-4.093,1.38c-3.184,0.179-5.192-2.629-4.472-6.072c0.369-1.764-0.959-2.485-2.478-2.587
			c-0.679-0.045-1.649,0.61-2.095,1.201c-1.154,1.533-2.382,2.834-4.552,2.945c-2.778,0.143-4.52-1.495-5.364-4.646
			c-0.183-0.681-1.143-1.46-1.91-1.667c-1.294-0.35-2.279,0.228-2.804,1.551c-0.538,1.356-1.039,2.943-2.119,3.854
			c-2.502,2.111-5.597,1.184-7.778-2.018c-0.789-1.159-1.985-1.475-3.082-0.686c-0.696,0.501-1.398,1.588-1.307,2.328
			c0.316,2.563-0.338,4.555-2.282,5.623c-1.924,1.058-4.223,0.746-6.361-0.919c-1.252-0.977-2.522-0.812-3.34,0.284
			c-0.479,0.641-0.663,1.888-0.313,2.571c1.245,2.438,1.349,4.371-0.081,5.998c-1.401,1.596-3.501,2.025-6.247,1.161
			c-1.575-0.497-2.772-0.011-3.127,1.332c-0.208,0.784,0.182,2.045,0.808,2.613c1.922,1.751,2.749,3.514,1.976,5.556
			c-0.81,2.144-2.65,2.984-4.963,3.025c-1.649,0.028-2.789,0.491-3.046,2.195c-0.25,1.659,1.04,1.969,2.216,2.582
			c1.089,0.569,2.291,1.296,2.9,2.25c1.737,2.726,0.15,5.339-3.657,6.906c-0.693,0.284-1.349,1.571-1.256,2.312
			c0.09,0.706,1.055,1.578,1.856,1.891c1.229,0.48,2.816,0.26,3.955,0.838c3.363,1.71,3.165,5.272-0.192,8.142
			c-0.488,0.419-0.872,1.434-0.664,1.949c0.306,0.756,1.147,1.8,1.835,1.851C42.98,140.733,44.399,140.242,45.596,140.032z"/>
		<path fill="#FFFFFF" d="M45.201,139.497c-1.202,0.189-2.63,0.657-3.996,0.532c-0.687-0.063-1.509-1.118-1.8-1.88
			c-0.198-0.521,0.204-1.528,0.7-1.938c3.409-2.817,3.676-6.374,0.345-8.137c-1.127-0.598-2.718-0.403-3.938-0.903
			c-0.795-0.326-1.745-1.212-1.82-1.919c-0.08-0.744,0.601-2.02,1.298-2.294c3.838-1.504,5.473-4.091,3.786-6.845
			c-0.59-0.964-1.778-1.709-2.856-2.296c-1.164-0.634-2.448-0.963-2.167-2.62c0.289-1.697,1.437-2.141,3.085-2.144
			c2.313-0.003,4.169-0.815,5.02-2.944c0.81-2.029,0.017-3.805-1.872-5.588c-0.615-0.579-0.98-1.846-0.759-2.625
			c0.381-1.338,1.587-1.805,3.153-1.282c2.728,0.908,4.836,0.513,6.267-1.061c1.46-1.604,1.392-3.539,0.193-5.996
			c-0.335-0.688-0.129-1.931,0.362-2.564c0.839-1.083,2.112-1.227,3.345-0.231c2.106,1.7,4.398,2.049,6.343,1.023
			c1.964-1.037,2.656-3.018,2.388-5.585c-0.078-0.741,0.645-1.817,1.35-2.306c1.111-0.771,2.3-0.437,3.069,0.735
			c2.12,3.236,5.196,4.214,7.739,2.144c1.097-0.894,1.628-2.472,2.191-3.819c0.549-1.315,1.545-1.876,2.833-1.505
			c0.762,0.22,1.708,1.014,1.879,1.698c0.784,3.164,2.495,4.829,5.276,4.732c2.172-0.076,3.424-1.357,4.607-2.872
			c0.457-0.583,1.439-1.224,2.116-1.167c1.516,0.127,2.831,0.87,2.429,2.627c-0.785,3.431,1.17,6.272,4.358,6.144
			c1.387-0.056,2.71-0.981,4.117-1.315c0.972-0.229,2.202-0.449,3.023-0.092c1.364,0.59,1.517,1.766,0.694,3.053
			c-1.443,2.256-1.406,4.204,0.137,5.847c1.712,1.821,3.867,1.66,6.195,1.196c0.852-0.17,2.172,0.205,2.78,0.783
			c0.984,0.939,0.943,2.117-0.34,3.119c-2.261,1.764-3,3.702-2.124,5.635c1.017,2.244,3.121,2.832,5.544,3.034
			c0.716,0.059,1.715,0.689,1.97,1.285c0.509,1.186,0.764,2.544-1.157,3.139c-2.316,0.718-4.06,1.984-4.109,4.48
			c-0.047,2.431,1.552,3.814,3.795,4.623c1.32,0.477,1.91,1.175,1.704,2.525c-0.277,1.8-1.491,2.138-3.187,2.13
			c-2.227-0.009-3.933,0.93-4.711,2.934c-0.791,2.036,0.005,3.732,1.569,5.198c0.849,0.795,2.049,1.398,1.23,2.892
			c-0.845,1.538-1.833,2.032-3.707,1.379c-1.106-0.387-2.561-0.426-3.701-0.117c-3.117,0.845-4.111,3.967-2.344,7.018
			c0.753,1.301,0.827,2.351-0.581,3.311c-1.248,0.851-2.244,0.523-3.324-0.29c-2.226-1.681-4.287-1.931-6.211-0.854
			c-1.896,1.058-2.577,3.064-2.292,5.599c0.085,0.755-0.469,1.903-1.135,2.334c-1.217,0.786-2.549,0.647-3.413-0.784
			c-1.441-2.39-3.311-3.396-5.552-3.078c-2.309,0.33-3.697,1.84-4.368,4.766c-0.304,1.325-1.276,2.058-2.593,1.663
			c-0.879-0.262-2.002-1.1-2.184-1.854c-0.611-2.521-1.909-4.211-4.141-4.657c-2.094-0.418-3.98,0.548-5.53,2.443
			c-0.62,0.756-1.813,1.627-2.688,1.579c-1.872-0.104-2.521-1.369-2.139-3.144c0.478-2.218-0.126-4.158-2.398-5.306
			c-2.294-1.16-4.327-0.415-6.187,0.999c-1.066,0.812-2.103,0.97-3.223,0.035c-1.062-0.89-1.235-1.799-0.56-3
			c0.502-0.89,0.961-1.889,1.062-2.874C50.314,141.626,48.241,139.6,45.201,139.497z M78.895,100.434
			c-10.81-0.182-19.774,7.856-19.986,17.924c-0.213,10.152,8.409,18.446,19.376,18.641c10.851,0.193,19.912-7.863,20.109-17.88
			C98.595,108.912,89.942,100.621,78.895,100.434z M54.499,105.394c3.292-0.231,5.191-2.133,4.984-4.993
			c-0.177-2.444-2.892-4.514-5.672-4.323c-2.569,0.176-4.598,2.398-4.398,4.818C49.625,103.451,52.017,105.568,54.499,105.394z
			 M47.896,112.743c-2.97-0.039-5.227,1.824-5.271,4.35c-0.049,2.671,2.203,4.789,5.12,4.821c2.717,0.029,5.049-2.051,5.085-4.539
			C52.867,114.824,50.689,112.778,47.896,112.743z M47.671,134.44c-0.053,2.507,2.124,4.587,4.863,4.643
			c2.87,0.06,5.18-2.021,5.236-4.717c0.054-2.551-2.001-4.543-4.734-4.589C50.208,129.729,47.725,131.887,47.671,134.44z
			 M67.82,140.815c-2.835-0.044-4.997,2.049-5.057,4.899c-0.049,2.396,2.086,4.468,4.66,4.515c2.796,0.052,5.24-1.988,5.298-4.421
			C72.786,143.031,70.657,140.861,67.82,140.815z M65.354,90.876c-0.047,2.503,2.335,4.79,5.035,4.831
			c2.682,0.039,4.82-1.939,4.88-4.515c0.062-2.733-2.114-4.927-4.93-4.969C67.681,86.183,65.402,88.312,65.354,90.876z
			 M109.408,124.339c3.179-0.01,5.233-1.809,5.223-4.575c-0.01-2.482-2.392-4.662-5.063-4.634c-2.697,0.029-5.124,2.414-5.115,5.029
			C104.46,122.417,106.747,124.345,109.408,124.339z M86.994,151.029c2.833-0.003,4.951-2.136,4.947-4.986
			c-0.003-2.146-2.646-4.426-5.114-4.408c-2.819,0.018-4.854,1.92-4.849,4.534C81.982,148.866,84.216,151.031,86.994,151.029z
			 M89.212,96.477c2.874,0.05,5.098-2.065,5.161-4.908c0.054-2.408-2.088-4.454-4.713-4.503c-2.883-0.054-5.104,1.983-5.155,4.729
			C84.457,94.332,86.567,96.431,89.212,96.477z M97.836,136.31c-0.047,2.468,2.447,4.789,5.188,4.826
			c2.691,0.037,4.85-1.967,4.901-4.548c0.051-2.686-2.061-4.609-5.12-4.663C100.001,131.875,97.886,133.743,97.836,136.31z
			 M104.219,107.371c2.662,0.045,5.186-2.131,5.225-4.502c0.043-2.673-2.063-4.679-4.97-4.73c-2.729-0.05-5.03,2.181-5.088,4.935
			C99.336,105.465,101.427,107.325,104.219,107.371z"/>
		<path fill="none" d="M78.55,100.43c11.05,0.009,19.858,8.159,19.849,18.367c-0.008,10.019-8.917,18.22-19.771,18.203
			c-10.968-0.017-19.745-8.172-19.723-18.326C58.927,108.605,67.739,100.423,78.55,100.43z"/>
		<path fill="none" d="M54.252,105.784c-2.479,0.214-4.911-1.863-5.169-4.415c-0.245-2.416,1.742-4.671,4.307-4.889
			c2.776-0.236,5.53,1.79,5.752,4.232C59.402,103.568,57.539,105.501,54.252,105.784z"/>
		<path fill="none" d="M47.787,113.239c2.793-0.01,5.011,2,5.021,4.551c0.009,2.488-2.283,4.606-5.001,4.621
			c-2.917,0.016-5.208-2.067-5.209-4.737C42.596,115.148,44.817,113.248,47.787,113.239z"/>
		<path fill="none" d="M47.972,134.937c0.007-2.554,2.447-4.751,5.276-4.748c2.733,0.003,4.826,1.96,4.82,4.511
			c-0.006,2.696-2.276,4.813-5.147,4.802C50.182,139.489,47.967,137.445,47.972,134.937z"/>
		<path fill="none" d="M68.237,140.985c2.837,0,5.007,2.136,4.994,4.913c-0.012,2.434-2.418,4.513-5.214,4.506
			c-2.574-0.006-4.748-2.04-4.742-4.438C63.28,143.115,65.402,140.985,68.237,140.985z"/>
		<path fill="none" d="M64.832,91.094c0-2.566,2.238-4.73,4.896-4.732c2.816-0.003,5.032,2.155,5.021,4.888
			c-0.009,2.577-2.11,4.59-4.793,4.593C67.258,95.846,64.832,93.598,64.832,91.094z"/>
		<path fill="none" d="M109.509,123.838c-2.66,0.05-4.982-1.842-5.033-4.101c-0.058-2.613,2.323-5.036,5.019-5.11
			c2.671-0.07,5.093,2.07,5.15,4.552C114.707,121.943,112.687,123.776,109.509,123.838z"/>
		<path fill="none" d="M87.6,150.888c-2.776,0.047-5.051-2.082-5.107-4.779c-0.053-2.614,1.945-4.548,4.763-4.612
			c2.467-0.057,5.152,2.18,5.196,4.324C92.51,148.671,90.435,150.839,87.6,150.888z"/>
		<path fill="none" d="M88.792,96.306c-2.646-0.002-4.794-2.067-4.794-4.605c0-2.746,2.181-4.818,5.065-4.811
			c2.626,0.006,4.806,2.018,4.797,4.426C93.851,94.159,91.667,96.31,88.792,96.306z"/>
		<path fill="none" d="M98.165,135.992c0-2.565,2.081-4.465,4.885-4.462c3.06,0.003,5.209,1.892,5.206,4.578
			c-0.002,2.581-2.123,4.62-4.813,4.627C100.702,140.742,98.164,138.461,98.165,135.992z"/>
		<path fill="none" d="M104.003,106.957c-2.793-0.001-4.918-1.826-4.914-4.219c0.006-2.754,2.265-5.022,4.994-5.017
			c2.907,0.006,5.051,1.977,5.058,4.649C109.147,104.743,106.663,106.959,104.003,106.957z"/>
	</g>
	<g>
		<path fill="#54A6DC" d="M79.354,95.817c0.797-2.109,0.469-3.616-0.557-4.148c-1.615-0.823-4.939,0.746-8.338,6.136
			c1.508,1.231,3.915,2.132,0.423,8.213c3.475-4.665,7.182-7.614,8.101-9.381C79.127,96.36,79.252,96.089,79.354,95.817z"/>
		<path fill="#1B3F73" stroke="#010101" stroke-miterlimit="10" d="M87.186,102.197c-0.087-4.473,0.115-21.369-9.593-21.526
			c-15.538,1.803-6.058,12.736-15.24,20.959c2.51-0.915,7.338-2.991,8.095-3.832c3.407-5.403,6.739-6.967,8.35-6.13
			c1.026,0.532,1.354,2.04,0.557,4.148c-0.102,0.271-0.227,0.543-0.371,0.819c-0.919,1.766-4.626,4.715-8.101,9.381
			c-0.016,0.02-0.033,0.039-0.049,0.059c-11.092,10.722-4.573,34.028,0.789,43.54c0.025,0.046,0.051,0.089,0.076,0.133
			c0.786,1.379,1.546,2.461,2.218,3.154c0.005,0.006,0.011,0.012,0.015,0.017c0.005,0.006,0.011,0.011,0.016,0.017
			c4.312,4.822,24.404,5.525,34.758-0.178C76.702,145.96,98.68,128.191,87.186,102.197z"/>
	</g>
</g>
</svg>
