<?xml version="1.0" encoding="utf-8"?>
<!-- Generator: Adobe Illustrator 16.2.0, SVG Export Plug-In . SVG Version: 6.00 Build 0)  -->
<!DOCTYPE svg PUBLIC "-//W3C//DTD SVG 1.1//EN" "http://www.w3.org/Graphics/SVG/1.1/DTD/svg11.dtd">
<svg version="1.1" id="Layer_1" xmlns="http://www.w3.org/2000/svg" xmlns:xlink="http://www.w3.org/1999/xlink" x="0px" y="0px"
	 width="242px" height="150px" viewBox="0 0 242 150" enable-background="new 0 0 242 150" xml:space="preserve">
<rect fill="#FDFDFD" width="242" height="150"/>
<g id="layer1">
	<g id="g4123">
		<g id="path4105">
			
				<radialGradient id="SVGID_1_" cx="-1570.1182" cy="1631.0527" r="97.8177" gradientTransform="matrix(1.7651 -0.035 -0.04 -2.0175 2933.2524 3335.8899)" gradientUnits="userSpaceOnUse">
				<stop  offset="0" style="stop-color:#010101"/>
				<stop  offset="1" style="stop-color:#010101;stop-opacity:0"/>
			</radialGradient>
			<path fill="url(#SVGID_1_)" d="M7.157,116.063l53.274,46.613c0,0,5.549,5.549,11.099,4.439
				c5.549-1.109,112.095-83.24,112.095-83.24s3.33-3.329,2.221-9.988c-1.111-6.659-57.713-41.065-57.713-41.065L7.157,116.063z"/>
		</g>
		<rect id="rect2985" x="-11.137" y="-13.5" fill="none" width="215.143" height="215.143"/>
		
			<path id="path4019" fill="#888A85" stroke="#2F3536" stroke-width="10" d="
			M6.647,86.822c0,0,0.534,11.529-2.121,15.002c4.242,3.182,39.165,34.264,50.305,43.791c4.435,3.791,11.393,5.518,14.698,1.969
			C74.866,135.93,7.283,86.561,6.647,86.822z"/>
		
			<linearGradient id="path4021_1_" gradientUnits="userSpaceOnUse" x1="-1609.6289" y1="1697.9951" x2="-1580.3522" y2="1663.2808" gradientTransform="matrix(1 0 0 -1 1694 1756)">
			<stop  offset="0" style="stop-color:#FFFFFF"/>
			<stop  offset="1" style="stop-color:#FFFFFF;stop-opacity:0"/>
		</linearGradient>
		
			<path id="path4021" opacity="0.6509" fill="url(#path4021_1_)" stroke="#FFFFFF" stroke-width="10" enable-background="new    " d="
			M11.648,86.369l106.823-77.58c0,0,26.9,15.59,46.214,30.759c5.771,4.532,16.609,18.213,7.729,27.274
			c-11.559,11.791-100.716,75.584-100.612,75.609c0,0-1.667-5.453-6.516-10.908S11.648,86.369,11.648,86.369z"/>
		
			<path id="path4035"  opacity="0.5063" fill="#2F3536" stroke="#FFFFFF" stroke-width="5.3111" enable-background="new    " d="
			M8.813,93.053c-0.055-0.275,0.523,2.887-1.382,8.193c3.765,2.811,35.374,30.486,44.938,39.125
			c3.981,3.598,11.472,8.867,13.723,6.34C70.827,136.42,9.377,92.82,8.813,93.053z"/>
		
			<path id="path4015"  fill="#D4D7D0" stroke="#565854" stroke-width="17" stroke-linejoin="round" d="
			M5.587,86.217L118.168,4.85c0,0,30.384,17.561,49.699,32.729c5.771,4.532,16.668,20.001,8.486,29.698
			C166.123,79.4,69.378,148.494,69.378,148.494s-1.364-8.941-6.213-14.396C58.317,128.645,5.587,86.217,5.587,86.217z"/>
		
			<path id="path4031"  opacity="0.6509" fill="none" stroke="#FFFFFF" stroke-width="10" enable-background="new    " d="
			M11.648,86.369l106.823-77.58c0,0,26.9,15.59,46.214,30.759c5.771,4.532,16.609,18.213,7.729,27.274
			c-11.559,11.791-100.716,75.584-100.612,75.609c0,0-1.667-5.453-6.516-10.908S11.648,86.369,11.648,86.369z"/>
		
			<path id="path4037"  fill="none" stroke="#2F3536" stroke-width="3" d="
			M8.92,100.461c-0.036-0.143,48.371,42.979,53.124,44.408c11.972,3.602-34.899-39.049-52.063-48.727"/>
		
			<path id="path4039"  fill="none" stroke="#2F3536" stroke-width="3" stroke-linecap="round" d="
			M9.648,99.535c17.774,14.6,37.792,32.498,52.714,43.82C48.103,125.793,27.58,112.783,10.184,97.5"/>
		<path id="path4041"  fill="#888A85" d="M26.042,86.672l91.52-67.882
			l18.182,13.334l-91.519,69.095L26.042,86.672z"/>
		<path id="path4043"  fill="#EEEEED" d="M105.441,68.489
			l35.758-28.486l21.82,14.546c0,0,6.666,4.849,6.061,9.698c-0.605,4.849-0.605,4.849-0.605,4.849L133.32,95.156
			c0,0-1.051-6.176-3.637-8.166C126.439,84.492,105.441,68.489,105.441,68.489L105.441,68.489z"/>
		
			<path id="path4045" opacity="0.4277" fill="none" stroke="#010101" stroke-width="4" stroke-linecap="round" enable-background="new    " d="
			M111.863,69.213l30.643-24.428"/>
		
			<path id="path4047" opacity="0.4277" fill="none" stroke="#010101" stroke-width="2" stroke-linecap="round" enable-background="new    " d="
			M121.228,70.583l22.413-17.953"/>
		
			<path id="path4049"  opacity="0.4277" fill="none" stroke="#010101" stroke-width="2" stroke-linecap="round" enable-background="new    " d="
			M120.635,75.903l30.455-23.879"/>
		
			<path id="path4051"  opacity="0.4277" fill="none" stroke="#010101" stroke-width="2" stroke-linecap="round" enable-background="new    " d="
			M123.684,78.117L153.4,55.381"/>
		
			<path id="path4053"  opacity="0.4277" fill="none" stroke="#010101" stroke-width="2" stroke-linecap="round" enable-background="new    " d="
			M126.441,81.252l30.844-24.291"/>
		
			<path id="path4055"  opacity="0.4277" fill="none" stroke="#010101" stroke-width="2" stroke-linecap="round" enable-background="new    " d="
			M129.006,84.575l32.357-24.938"/>
		
			<path id="path4057"  opacity="0.4277" fill="none" stroke="#010101" stroke-width="2" stroke-linecap="round" enable-background="new    " d="
			M133.959,86.125l28.023-21.181"/>
		
			<path id="path4059"  opacity="0.4277" fill="none" stroke="#010101" stroke-width="2" enable-background="new    " d="
			M135.559,90.213l30.395-23.569"/>
		<path id="path4061"  fill="#EEEEED" d="M52.104,104.248
			l46.063-33.334l26.668,20c3.328,2.83,3.689,5.658,3.637,8.486l-48.488,35.152c0,0-0.606-9.697-3.031-10.908
			C74.53,122.432,52.104,104.248,52.104,104.248z"/>
		
			<path id="path4063"  opacity="0.4277" fill="none" stroke="#010101" stroke-width="4" stroke-linecap="round" enable-background="new    " d="
			M63.386,105.873l18.5-13.195"/>
		<path id="path4065"  fill="#BABDB6" d="M84.227,89.096L98.47,78.187
			l13.94,10.001L98.167,98.49L84.227,89.096z"/>
		
			<path id="path4067"  opacity="0.4277" fill="none" stroke="#010101" stroke-width="2" stroke-linecap="round" enable-background="new    " d="
			M65.392,111.145l22.754-15.873"/>
		
			<path id="path4069"  opacity="0.4277" fill="none" stroke="#010101" stroke-width="2" stroke-linecap="round" enable-background="new    " d="
			M68.726,113.57l22.753-15.875"/>
		
			<path id="path4071"  opacity="0.4277" fill="none" stroke="#010101" stroke-width="2" stroke-linecap="round" enable-background="new    " d="
			M72.363,116.6l22.753-15.873"/>
		
			<path id="path4073"  opacity="0.4277" fill="none" stroke="#010101" stroke-width="2.0087" stroke-linecap="round" enable-background="new    " d="
			M77.119,119.723l39.303-26.666"/>
		
			<path id="path4075"  opacity="0.4277" fill="none" stroke="#010101" stroke-width="2.0087" stroke-linecap="round" enable-background="new    " d="
			M81.058,123.662l39.304-26.666"/>
		
			<path id="path4077"  opacity="0.4277" fill="none" stroke="#010101" stroke-width="2.0045" stroke-linecap="round" enable-background="new    " d="
			M83.482,127.604l38.698-26.971"/>
		
			<linearGradient id="path4079_1_" gradientUnits="userSpaceOnUse" x1="-1564.8472" y1="1649.1758" x2="-1582.4136" y2="1673.3893" gradientTransform="matrix(1 0 0 -1 1694 1756)">
			<stop  offset="0" style="stop-color:#010101"/>
			<stop  offset="1" style="stop-color:#010101;stop-opacity:0"/>
		</linearGradient>
		<path id="path4079"  fill="url(#path4079_1_)" d="M70.679,145.41
			c-0.234-6.471-11.603-19.021-18.144-23.275L166.717,39.51c5.623,3.602,15.203,18.785,8.406,27.375
			C145.682,91.789,104.458,121.34,70.679,145.41L70.679,145.41z"/>
	</g>
</g>
<g>
</g>
<g>
</g>
<g>
</g>
<g>
</g>
<g>
</g>
<g>
</g>
</svg>
