<?xml version="1.0" encoding="utf-8"?>
<!-- Generator: Adobe Illustrator 16.2.0, SVG Export Plug-In . SVG Version: 6.00 Build 0)  -->
<!DOCTYPE svg PUBLIC "-//W3C//DTD SVG 1.1//EN" "http://www.w3.org/Graphics/SVG/1.1/DTD/svg11.dtd">
<svg version="1.1" id="Layer_1" xmlns="http://www.w3.org/2000/svg" xmlns:xlink="http://www.w3.org/1999/xlink" x="0px" y="0px"
	 width="350px" height="130px" viewBox="0 0 350 130" enable-background="new 0 0 350 130" xml:space="preserve">
<linearGradient id="SVGID_1_" gradientUnits="userSpaceOnUse" x1="496" y1="556" x2="846" y2="556" gradientTransform="matrix(1 0 0 1 -496 -491)">
	<stop  offset="0" style="stop-color:#000000"/>
	<stop  offset="0.279" style="stop-color:#020202;stop-opacity:0.721"/>
	<stop  offset="0.4167" style="stop-color:#0A0A0A;stop-opacity:0.5833"/>
	<stop  offset="0.5234" style="stop-color:#171717;stop-opacity:0.4766"/>
	<stop  offset="0.6143" style="stop-color:#2A2A2A;stop-opacity:0.3857"/>
	<stop  offset="0.695" style="stop-color:#424242;stop-opacity:0.305"/>
	<stop  offset="0.7686" style="stop-color:#606060;stop-opacity:0.2314"/>
	<stop  offset="0.8367" style="stop-color:#838383;stop-opacity:0.1633"/>
	<stop  offset="0.9006" style="stop-color:#ADADAD;stop-opacity:0.0994"/>
	<stop  offset="0.9588" style="stop-color:#DADADA;stop-opacity:0.0412"/>
	<stop  offset="1" style="stop-color:#FFFFFF;stop-opacity:0"/>
</linearGradient>
<rect fill="url(#SVGID_1_)" width="350" height="130"/>
<g>
	<g enable-background="new    ">
		<path fill="#FFFFFF" d="M167.342,70.154c-0.184-0.459-0.306-0.74-0.306-2.191v-2.801c0-1.655-0.673-2.268-2.204-2.268h-1.163
			v7.258h-3.367V52.326h5.081c3.489,0,4.989,1.351,4.989,4.101v1.399c0,1.834-0.704,3.031-2.204,3.617
			c1.684,0.586,2.234,1.936,2.234,3.795v2.75c0,0.865,0.031,1.502,0.368,2.164h-3.428V70.154z M163.669,54.873v5.477h1.316
			c1.255,0,2.02-0.458,2.02-1.885v-1.757c0-1.273-0.521-1.835-1.714-1.835H163.669z"/>
		<path fill="#FFFFFF" d="M172.333,56.605c0-2.853,1.806-4.482,5.112-4.482c3.307,0,5.113,1.631,5.113,4.482v9.27
			c0,2.854-1.807,4.482-5.113,4.482c-3.306,0-5.112-1.629-5.112-4.482V56.605z M175.7,66.053c0,1.273,0.673,1.758,1.745,1.758
			s1.746-0.484,1.746-1.758v-9.625c0-1.273-0.674-1.757-1.746-1.757s-1.745,0.483-1.745,1.757V66.053z"/>
		<path fill="#FFFFFF" d="M191.771,70.154c-0.184-0.459-0.307-0.74-0.307-2.191v-2.801c0-1.655-0.672-2.268-2.203-2.268H188.1v7.258
			h-3.367V52.326h5.082c3.488,0,4.988,1.351,4.988,4.101v1.399c0,1.834-0.703,3.031-2.203,3.617
			c1.684,0.586,2.232,1.936,2.232,3.795v2.75c0,0.865,0.031,1.502,0.369,2.164h-3.43V70.154z M188.098,54.873v5.477h1.316
			c1.254,0,2.02-0.458,2.02-1.885v-1.757c0-1.273-0.521-1.835-1.715-1.835H188.098z"/>
	</g>
	<g enable-background="new    ">
		<path fill="#FFFFFF" d="M141.03,87.467c-0.125-0.375-0.208-0.604-0.208-1.793v-2.291c0-1.355-0.458-1.855-1.501-1.855h-0.792
			v5.939h-2.292v-14.59h3.46c2.376,0,3.397,1.105,3.397,3.357v1.145c0,1.5-0.479,2.48-1.501,2.959
			c1.146,0.48,1.521,1.586,1.521,3.107v2.25c0,0.709,0.021,1.229,0.25,1.771H141.03L141.03,87.467z M138.528,74.963v4.48h0.896
			c0.854,0,1.375-0.375,1.375-1.543v-1.438c0-1.043-0.354-1.5-1.167-1.5H138.528z"/>
		<path fill="#FFFFFF" d="M144.426,76.379c0-2.334,1.23-3.668,3.481-3.668s3.481,1.334,3.481,3.668v7.588
			c0,2.334-1.23,3.668-3.481,3.668s-3.481-1.334-3.481-3.668V76.379z M146.719,84.113c0,1.041,0.458,1.438,1.188,1.438
			s1.188-0.396,1.188-1.438v-7.879c0-1.043-0.458-1.439-1.188-1.439s-1.188,0.396-1.188,1.439V84.113z"/>
		<path fill="#FFFFFF" d="M159.726,76.234v0.52c0,1.502-0.458,2.461-1.48,2.939c1.229,0.479,1.709,1.584,1.709,3.127v1.188
			c0,2.25-1.188,3.459-3.481,3.459h-3.606v-14.59h3.46C158.704,72.877,159.726,73.982,159.726,76.234z M155.161,74.963v3.855h0.896
			c0.854,0,1.375-0.375,1.375-1.543v-0.813c0-1.043-0.354-1.5-1.167-1.5H155.161z M155.161,80.902v4.48h1.313
			c0.771,0,1.188-0.354,1.188-1.438v-1.271c0-1.354-0.438-1.77-1.48-1.77h-1.021V80.902z"/>
		<path fill="#FFFFFF" d="M161.142,76.379c0-2.334,1.23-3.668,3.481-3.668s3.481,1.334,3.481,3.668v7.588
			c0,2.334-1.23,3.668-3.481,3.668s-3.481-1.334-3.481-3.668V76.379z M163.435,84.113c0,1.041,0.458,1.438,1.188,1.438
			s1.188-0.396,1.188-1.438v-7.879c0-1.043-0.458-1.439-1.188-1.439s-1.188,0.396-1.188,1.439V84.113z"/>
		<path fill="#FFFFFF" d="M168.916,72.877h7.086v2.086h-2.397v12.506h-2.292V74.963h-2.397V72.877L168.916,72.877z"/>
		<path fill="#FFFFFF" d="M177.002,72.877h2.293v14.592h-2.293V72.877z"/>
		<path fill="#FFFFFF" d="M187.609,82.027v1.938c0,2.336-1.166,3.67-3.418,3.67c-2.25,0-3.418-1.334-3.418-3.67v-7.586
			c0-2.334,1.168-3.668,3.418-3.668c2.252,0,3.418,1.334,3.418,3.668v1.416h-2.168v-1.561c0-1.043-0.457-1.439-1.188-1.439
			s-1.188,0.396-1.188,1.439v7.879c0,1.041,0.457,1.416,1.188,1.416s1.188-0.375,1.188-1.416v-2.086H187.609L187.609,82.027z"/>
		<path fill="#FFFFFF" d="M192.09,72.711c2.23,0,3.377,1.334,3.377,3.668v0.459h-2.168v-0.604c0-1.041-0.418-1.438-1.146-1.438
			s-1.146,0.396-1.146,1.438c0,3.002,4.482,3.564,4.482,7.732c0,2.334-1.168,3.668-3.418,3.668c-2.252,0-3.418-1.334-3.418-3.668
			V83.07h2.166v1.043c0,1.043,0.459,1.418,1.188,1.418c0.73,0,1.189-0.375,1.189-1.418c0-3.002-4.482-3.564-4.482-7.732
			C188.713,74.045,189.859,72.711,192.09,72.711z"/>
	</g>
	<g enable-background="new    ">
		<path fill="#FFFFFF" d="M113.157,61.619l3.319-21.993h6.77v30.976h-4.602V48.386L115.281,70.6h-4.602l-3.629-21.903V70.6h-4.248
			V39.625h6.771L113.157,61.619z"/>
		<path fill="#FFFFFF" d="M141.212,47.281v4.026c0,4.956-2.39,7.655-7.257,7.655h-2.301V70.6h-4.868V39.625h7.168
			C138.823,39.625,141.212,42.324,141.212,47.281z M131.654,44.05v10.488h2.301c1.549,0,2.39-0.709,2.39-2.922v-4.646
			c0-2.212-0.841-2.921-2.39-2.921H131.654z"/>
		<path fill="#FFFFFF" d="M158.648,70.6h-4.912l-0.841-5.62h-5.974l-0.841,5.62h-4.469l4.956-30.975h7.124L158.648,70.6z
			 M147.542,60.777h4.69l-2.345-15.664L147.542,60.777z"/>
	</g>
</g>
<g>
	<g>
		<path fill-rule="evenodd" clip-rule="evenodd" fill="none" d="M53.717,108.334c-16.286,0-32.572,0.001-48.858-0.012
			c-0.098,0-0.281-0.184-0.281-0.282c-0.012-31.2-0.012-62.402,0-93.603c0-0.098,0.184-0.282,0.281-0.282
			c32.572-0.013,65.144-0.013,97.716,0c0.098,0,0.282,0.184,0.282,0.282c0.012,31.201,0.012,62.403,0,93.603
			c0,0.099-0.184,0.282-0.282,0.282C86.29,108.335,70.003,108.334,53.717,108.334z M23.955,85.185
			c2.802,0.052,4.746,2.03,4.547,4.639c-0.075,0.978-0.48,1.976-0.928,2.87c-0.601,1.201-0.425,2.102,0.568,2.967
			c1.047,0.912,1.999,0.737,2.966-0.084c1.688-1.436,3.547-2.207,5.68-1.092c2.113,1.103,2.701,3.018,2.3,5.228
			c-0.32,1.768,0.299,3.013,2.024,3.086c0.809,0.034,1.892-0.85,2.45-1.611c1.394-1.905,3.114-2.895,5.049-2.513
			c2.064,0.407,3.288,2.065,3.894,4.557c0.181,0.746,1.23,1.559,2.044,1.805c1.219,0.37,2.103-0.372,2.36-1.691
			c0.567-2.916,1.819-4.438,3.94-4.801c2.059-0.354,3.798,0.616,5.167,2.965c0.821,1.408,2.05,1.523,3.157,0.724
			c0.605-0.438,1.097-1.586,1.004-2.336c-0.308-2.513,0.285-4.514,2.013-5.595c1.753-1.098,3.655-0.884,5.735,0.748
			c1.009,0.792,1.931,1.101,3.066,0.235c1.279-0.976,1.193-2.018,0.477-3.297c-1.679-2.999-0.818-6.115,2.038-7.003
			c1.044-0.325,2.385-0.311,3.411,0.056c1.736,0.619,2.639,0.113,3.389-1.429c0.729-1.496-0.387-2.074-1.183-2.852
			c-1.465-1.43-2.228-3.102-1.536-5.136c0.682-2.002,2.237-2.961,4.289-2.987c1.562-0.021,2.674-0.375,2.897-2.166
			c0.168-1.346-0.389-2.027-1.612-2.479c-2.079-0.769-3.576-2.116-3.575-4.529c0.002-2.478,1.585-3.765,3.706-4.513
			c1.759-0.621,1.5-1.966,1.012-3.135c-0.245-0.587-1.176-1.197-1.836-1.245c-2.236-0.162-4.183-0.711-5.159-2.922
			c-0.84-1.904-0.193-3.841,1.859-5.629c1.164-1.015,1.181-2.184,0.258-3.101c-0.569-0.564-1.792-0.917-2.574-0.734
			c-2.136,0.498-4.117,0.693-5.725-1.087c-1.45-1.607-1.518-3.54-0.228-5.803c0.736-1.291,0.575-2.456-0.69-3.02
			c-0.765-0.341-1.893-0.104-2.784,0.141c-1.29,0.354-2.492,1.293-3.768,1.371c-2.933,0.178-4.783-2.611-4.12-6.03
			c0.34-1.75-0.884-2.467-2.283-2.569c-0.625-0.045-1.519,0.605-1.929,1.193c-1.063,1.521-2.194,2.814-4.193,2.925
			c-2.56,0.141-4.164-1.485-4.941-4.613c-0.168-0.676-1.052-1.449-1.759-1.655c-1.192-0.348-2.1,0.226-2.583,1.539
			c-0.496,1.348-0.957,2.922-1.953,3.828c-2.305,2.096-5.155,1.175-7.163-2.004c-0.728-1.15-1.829-1.464-2.839-0.68
			c-0.641,0.497-1.287,1.576-1.203,2.311c0.291,2.544-0.312,4.521-2.103,5.583c-1.772,1.05-3.89,0.74-5.858-0.914
			c-1.153-0.968-2.324-0.806-3.077,0.283c-0.441,0.636-0.61,1.875-0.289,2.552c1.146,2.421,1.242,4.34-0.074,5.956
			c-1.29,1.584-3.225,2.012-5.753,1.153c-1.45-0.493-2.554-0.01-2.881,1.323c-0.191,0.778,0.168,2.029,0.744,2.595
			c1.771,1.739,2.531,3.489,1.82,5.517c-0.746,2.127-2.441,2.964-4.571,3.004c-1.519,0.028-2.568,0.488-2.805,2.179
			c-0.231,1.648,0.957,1.955,2.041,2.564c1.003,0.565,2.11,1.286,2.671,2.234c1.6,2.707,0.139,5.301-3.369,6.856
			c-0.639,0.283-1.242,1.562-1.156,2.297c0.082,0.702,0.972,1.565,1.709,1.876c1.132,0.478,2.593,0.26,3.642,0.834
			c3.098,1.697,2.915,5.234-0.177,8.083c-0.45,0.416-0.802,1.424-0.611,1.937c0.281,0.75,1.056,1.786,1.689,1.836
			C21.545,85.878,22.853,85.392,23.955,85.185z"/>
		<path fill-rule="evenodd" clip-rule="evenodd" fill="none" stroke="#FFFFFF" stroke-miterlimit="10" d="M23.59,84.65
			c-1.106,0.189-2.422,0.653-3.679,0.529c-0.633-0.063-1.389-1.11-1.658-1.866c-0.183-0.516,0.187-1.518,0.645-1.925
			c3.14-2.796,3.385-6.328,0.318-8.079c-1.039-0.593-2.504-0.4-3.628-0.896c-0.732-0.324-1.606-1.202-1.676-1.906
			c-0.074-0.737,0.553-2.004,1.196-2.276c3.535-1.494,5.041-4.063,3.488-6.797c-0.544-0.958-1.638-1.698-2.631-2.28
			c-1.072-0.628-2.255-0.956-1.995-2.6c0.266-1.687,1.323-2.128,2.842-2.13c2.13-0.002,3.84-0.81,4.623-2.923
			c0.747-2.016,0.017-3.779-1.723-5.548c-0.566-0.576-0.903-1.833-0.699-2.607c0.351-1.327,1.462-1.792,2.904-1.273
			c2.513,0.903,4.455,0.51,5.772-1.052c1.344-1.593,1.282-3.514,0.178-5.953c-0.309-0.684-0.119-1.918,0.333-2.548
			c0.772-1.075,1.946-1.217,3.082-0.229c1.939,1.688,4.051,2.035,5.842,1.016c1.809-1.03,2.445-2.996,2.199-5.545
			c-0.071-0.736,0.594-1.803,1.244-2.29c1.023-0.766,2.12-0.434,2.827,0.73c1.953,3.213,4.786,4.184,7.128,2.128
			c1.011-0.887,1.499-2.454,2.019-3.792c0.506-1.306,1.423-1.863,2.609-1.495c0.704,0.218,1.574,1.006,1.731,1.686
			c0.722,3.142,2.298,4.795,4.859,4.698c2.001-0.075,3.154-1.347,4.244-2.851c0.42-0.58,1.325-1.215,1.949-1.159
			c1.396,0.126,2.607,0.864,2.238,2.609c-0.723,3.406,1.078,6.227,4.014,6.101c1.278-0.055,2.497-0.975,3.792-1.305
			c0.896-0.229,2.028-0.446,2.786-0.092c1.255,0.585,1.396,1.753,0.638,3.032c-1.33,2.24-1.296,4.174,0.126,5.806
			c1.577,1.81,3.561,1.648,5.706,1.188c0.785-0.169,2.001,0.204,2.561,0.779c0.906,0.933,0.869,2.102-0.313,3.096
			c-2.082,1.751-2.763,3.677-1.956,5.596c0.937,2.228,2.874,2.811,5.106,3.012c0.66,0.06,1.58,0.686,1.815,1.277
			c0.468,1.178,0.703,2.527-1.066,3.118c-2.133,0.711-3.739,1.969-3.784,4.447c-0.043,2.413,1.43,3.786,3.495,4.591
			c1.217,0.474,1.76,1.166,1.569,2.508c-0.253,1.786-1.372,2.121-2.934,2.115c-2.052-0.009-3.624,0.923-4.34,2.912
			c-0.729,2.021,0.005,3.707,1.445,5.162c0.782,0.79,1.888,1.387,1.133,2.871c-0.778,1.529-1.688,2.019-3.414,1.369
			c-1.019-0.383-2.359-0.422-3.409-0.116c-2.871,0.84-3.786,3.938-2.159,6.968c0.693,1.292,0.762,2.336-0.534,3.288
			c-1.15,0.845-2.067,0.521-3.062-0.288c-2.051-1.669-3.949-1.917-5.72-0.85c-1.747,1.052-2.375,3.042-2.111,5.56
			c0.079,0.751-0.432,1.89-1.044,2.317c-1.121,0.78-2.348,0.644-3.144-0.778c-1.328-2.373-3.05-3.372-5.114-3.054
			c-2.127,0.325-3.405,1.824-4.023,4.729c-0.28,1.316-1.176,2.043-2.389,1.651c-0.809-0.261-1.844-1.092-2.012-1.839
			c-0.563-2.503-1.757-4.183-3.813-4.626c-1.929-0.415-3.666,0.544-5.093,2.426c-0.571,0.751-1.669,1.614-2.477,1.567
			c-1.724-0.103-2.321-1.359-1.969-3.12c0.439-2.203-0.116-4.13-2.209-5.269c-2.114-1.152-3.986-0.411-5.699,0.993
			c-0.981,0.805-1.937,0.963-2.967,0.033c-0.978-0.884-1.138-1.786-0.516-2.977c0.463-0.886,0.886-1.878,0.978-2.854
			C28.3,86.766,26.391,84.753,23.59,84.65z M54.624,45.864c-9.956-0.182-18.213,7.801-18.407,17.795
			c-0.196,10.082,7.745,18.319,17.846,18.512c9.995,0.19,18.34-7.809,18.521-17.754C72.77,54.282,64.8,46.049,54.624,45.864z
			 M32.155,50.789c3.032-0.229,4.781-2.118,4.59-4.957c-0.163-2.428-2.663-4.483-5.224-4.294c-2.367,0.175-4.234,2.382-4.051,4.785
			C27.665,48.86,29.869,50.961,32.155,50.789z M26.072,58.085c-2.735-0.038-4.814,1.812-4.856,4.32
			c-0.043,2.651,2.029,4.755,4.716,4.787c2.503,0.029,4.65-2.036,4.685-4.507C30.652,60.153,28.646,58.121,26.072,58.085z
			 M25.866,79.631c-0.049,2.489,1.957,4.554,4.479,4.609c2.644,0.059,4.771-2.006,4.823-4.683c0.049-2.532-1.843-4.511-4.361-4.557
			C28.202,74.954,25.917,77.095,25.866,79.631z M44.423,85.962c-2.611-0.047-4.602,2.034-4.656,4.863
			c-0.046,2.381,1.921,4.437,4.291,4.483c2.575,0.052,4.827-1.974,4.879-4.389C48.998,88.161,47.037,86.007,44.423,85.962z
			 M42.152,36.374c-0.043,2.486,2.151,4.756,4.637,4.796c2.471,0.041,4.44-1.924,4.494-4.482c0.057-2.714-1.946-4.892-4.541-4.934
			C44.296,31.714,42.197,33.827,42.152,36.374z M82.728,69.6c2.928-0.009,4.82-1.796,4.811-4.543
			c-0.009-2.464-2.203-4.628-4.664-4.6c-2.484,0.028-4.719,2.397-4.711,4.993C78.171,67.692,80.278,69.607,82.728,69.6z
			 M62.084,96.103c2.61-0.002,4.56-2.121,4.557-4.951c-0.003-2.132-2.438-4.395-4.71-4.378c-2.596,0.02-4.47,1.908-4.466,4.503
			C57.468,93.955,59.526,96.104,62.084,96.103z M64.127,41.934c2.647,0.049,4.695-2.05,4.754-4.873
			c0.05-2.391-1.924-4.423-4.341-4.472c-2.655-0.053-4.701,1.969-4.748,4.695C59.748,39.806,61.691,41.889,64.127,41.934z
			 M72.071,81.486c-0.043,2.45,2.254,4.755,4.778,4.792c2.479,0.037,4.467-1.953,4.514-4.516c0.048-2.667-1.897-4.577-4.715-4.63
			C74.065,77.084,72.116,78.938,72.071,81.486z M77.951,52.752c2.45,0.044,4.776-2.116,4.812-4.47c0.04-2.654-1.9-4.646-4.577-4.698
			c-2.514-0.049-4.633,2.167-4.687,4.9C73.453,50.861,75.378,52.706,77.951,52.752z"/>
		<path fill-rule="evenodd" clip-rule="evenodd" fill="none" d="M54.308,45.861c10.177,0.008,18.289,8.1,18.281,18.236
			c-0.007,9.948-8.212,18.092-18.209,18.074c-10.103-0.016-18.187-8.112-18.167-18.196C36.232,53.978,44.349,45.853,54.308,45.861z"
			/>
		<path fill-rule="evenodd" clip-rule="evenodd" fill="none" d="M31.928,51.177c-2.283,0.212-4.523-1.85-4.762-4.384
			c-0.226-2.399,1.604-4.639,3.967-4.855c2.557-0.234,5.093,1.777,5.298,4.202C36.672,48.976,34.956,50.895,31.928,51.177z"/>
		<path fill-rule="evenodd" clip-rule="evenodd" fill="none" d="M25.973,58.579c2.573-0.01,4.615,1.987,4.625,4.52
			c0.009,2.471-2.103,4.574-4.605,4.588c-2.688,0.015-4.797-2.052-4.799-4.704C21.191,60.473,23.238,58.588,25.973,58.579z"/>
		<path fill-rule="evenodd" clip-rule="evenodd" fill="none" d="M26.143,80.123c0.005-2.536,2.254-4.717,4.86-4.714
			c2.518,0.002,4.445,1.946,4.439,4.479c-0.006,2.678-2.097,4.78-4.74,4.768C28.179,84.644,26.137,82.614,26.143,80.123z"/>
		<path fill-rule="evenodd" clip-rule="evenodd" fill="none" d="M44.808,86.13c2.613-0.001,4.612,2.12,4.6,4.879
			c-0.011,2.415-2.227,4.48-4.802,4.473c-2.371-0.005-4.373-2.025-4.369-4.406C40.243,88.244,42.197,86.13,44.808,86.13z"/>
		<path fill-rule="evenodd" clip-rule="evenodd" fill="none" d="M41.672,36.589c0-2.547,2.062-4.696,4.51-4.699
			c2.594-0.003,4.635,2.139,4.625,4.854c-0.009,2.559-1.944,4.557-4.415,4.561C43.906,41.308,41.672,39.077,41.672,36.589z"/>
		<path fill-rule="evenodd" clip-rule="evenodd" fill="none" d="M82.821,69.103c-2.45,0.051-4.589-1.829-4.636-4.072
			c-0.053-2.594,2.141-5,4.623-5.073c2.46-0.071,4.691,2.054,4.743,4.519C87.609,67.222,85.749,69.042,82.821,69.103z"/>
		<path fill-rule="evenodd" clip-rule="evenodd" fill="none" d="M62.643,95.962c-2.558,0.046-4.653-2.067-4.704-4.747
			c-0.049-2.593,1.792-4.515,4.387-4.579c2.272-0.055,4.746,2.165,4.786,4.295C67.165,93.763,65.253,95.913,62.643,95.962z"/>
		<path fill-rule="evenodd" clip-rule="evenodd" fill="none" d="M63.74,41.766c-2.437-0.003-4.416-2.053-4.416-4.573
			c0-2.727,2.009-4.784,4.665-4.777c2.419,0.006,4.427,2.004,4.419,4.395C68.4,39.633,66.388,41.769,63.74,41.766z"/>
		<path fill-rule="evenodd" clip-rule="evenodd" fill="none" d="M72.373,81.172c0.001-2.547,1.917-4.435,4.5-4.432
			c2.818,0.004,4.797,1.881,4.795,4.547c-0.001,2.563-1.956,4.587-4.434,4.595C74.709,85.889,72.372,83.623,72.373,81.172z"/>
		<path fill-rule="evenodd" clip-rule="evenodd" fill="none" d="M77.75,52.341c-2.573-0.001-4.53-1.813-4.525-4.189
			c0.005-2.734,2.086-4.987,4.6-4.982c2.677,0.006,4.652,1.963,4.659,4.618C82.489,50.142,80.201,52.342,77.75,52.341z"/>
	</g>
	<g>
		<path fill="#FFFFFF" d="M56.063,40.5c0.734-2.095-0.716-4.658-1.662-5.188c-1.488-0.816-5.309,2.221-7.775,7.656
			c1.389,1.222,3.836,2.401,0.619,8.439c3.2-4.632,7.628-7.093,8.475-8.845C55.851,42.289,55.968,40.77,56.063,40.5z"/>
		<path fill="#FFFFFF" d="M62.261,47.614c-0.081-4.44,0.106-21.218-8.835-21.374c-14.311,1.791-5.58,12.646-14.037,20.812
			c2.312-0.908,6.769-2.963,7.466-3.799c3.138-5.365,6.195-6.923,7.679-6.093c0.946,0.529,1.248,2.025,0.513,4.12
			c-0.094,0.27-0.209,0.54-0.341,0.813c-0.847,1.752-4.262,4.682-7.462,9.314c-0.014,0.02-0.03,0.04-0.045,0.06
			c-10.216,10.646-4.211,33.787,0.728,43.233c0.023,0.044,0.047,0.087,0.07,0.133c0.724,1.367,1.424,2.442,2.043,3.131
			c0.005,0.005,0.009,0.011,0.014,0.016c0.004,0.006,0.011,0.013,0.016,0.019c3.97,4.786,22.477,5.485,32.014-0.177
			C52.605,91.069,72.847,73.426,62.261,47.614z"/>
	</g>
</g>
</svg>
